<?xml version="1.0" standalone="no"?>
<!DOCTYPE svg PUBLIC "-//W3C//DTD SVG 20010904//EN"
 "http://www.w3.org/TR/2001/REC-SVG-20010904/DTD/svg10.dtd">
<svg version="1.0" xmlns="http://www.w3.org/2000/svg"
 width="670.000000pt" height="670.000000pt" viewBox="0 0 670.000000 670.000000"
 preserveAspectRatio="xMidYMid meet">
<metadata>
Created by potrace 1.14, written by Peter Selinger 2001-2017
</metadata>
<g transform="translate(0.000000,670.000000) scale(0.100000,-0.100000)"
fill="#000000" stroke="none">
<path d="M3270 6129 c-246 -16 -550 -76 -710 -139 -137 -54 -315 -155 -413
-234 -55 -44 -147 -118 -204 -163 -57 -45 -139 -111 -181 -146 -42 -34 -103
-82 -135 -106 -31 -24 -79 -73 -105 -110 -72 -99 -202 -305 -202 -320 0 -6 -7
-25 -15 -40 -14 -28 -13 -30 25 -71 34 -37 41 -40 46 -25 9 23 -8 49 -35 53
-22 4 -25 10 -15 36 3 9 10 13 15 10 5 -3 9 4 9 15 0 11 21 40 48 64 119 112
211 193 305 269 56 45 174 143 262 218 176 150 318 261 364 285 17 8 47 15 67
15 22 0 68 15 118 39 108 52 175 63 375 59 91 -1 195 0 231 4 277 29 357 31
450 14 47 -8 144 -20 215 -27 130 -11 252 -37 396 -84 55 -19 98 -43 160 -90
46 -36 89 -65 96 -65 6 0 20 -11 31 -25 11 -13 22 -22 25 -19 9 9 49 -16 83
-52 17 -19 38 -34 45 -34 8 0 22 -8 30 -17 9 -10 26 -25 39 -33 12 -8 35 -25
50 -37 15 -13 37 -23 48 -23 13 0 26 -11 34 -27 7 -16 21 -28 31 -28 10 0 21
-5 25 -10 25 -36 223 -155 256 -155 29 0 83 -51 226 -213 68 -76 145 -157 172
-180 55 -47 151 -168 167 -211 6 -15 11 -64 11 -109 0 -197 -57 -370 -166
-505 -30 -37 -59 -83 -65 -102 -28 -85 -108 -243 -170 -336 -82 -125 -96 -150
-77 -138 32 19 250 198 318 261 42 39 108 87 149 109 111 59 182 129 230 227
55 114 79 178 101 268 10 43 31 100 46 128 24 41 27 54 18 78 -13 39 -82 62
-132 43 -44 -16 -48 -12 -98 119 -51 135 -118 262 -166 316 -44 50 -299 263
-383 320 -82 56 -128 88 -165 116 -424 316 -908 651 -992 689 -103 45 -414
105 -601 115 -50 3 -110 7 -132 9 -22 1 -92 -1 -155 -5z m1465 -668 c7 -12
-12 -24 -25 -16 -11 7 -4 25 10 25 5 0 11 -4 15 -9z"/>
<path d="M1970 5840 c0 -5 14 -10 32 -10 36 0 35 4 -4 14 -17 4 -28 2 -28 -4z"/>
<path d="M3150 5785 c-135 -13 -297 -26 -360 -29 -116 -5 -194 -22 -262 -57
-21 -10 -48 -19 -60 -19 -15 0 -62 -34 -133 -98 -61 -54 -193 -167 -294 -252
-428 -362 -520 -441 -583 -503 -15 -16 -28 -34 -28 -41 0 -8 -8 -24 -19 -37
-52 -67 -147 -302 -171 -427 -16 -80 2 -113 81 -150 l57 -27 5 -65 c4 -36 9
-76 12 -90 5 -17 -1 -36 -18 -61 l-24 -35 23 -27 c13 -15 28 -27 34 -27 14 0
13 -23 -2 -38 -33 -33 573 -558 827 -718 146 -92 215 -128 215 -110 0 21 34
20 51 -1 12 -15 12 -16 -3 -10 -23 8 -23 -5 0 -26 18 -16 147 -79 190 -91 17
-6 22 -3 22 12 0 11 8 22 18 24 23 6 38 5 34 -4 -1 -5 3 -8 8 -8 6 0 10 7 8
16 -2 9 5 21 14 27 14 9 22 6 46 -21 29 -32 46 -39 56 -23 11 17 -5 40 -36 50
-22 8 -28 15 -24 29 5 15 -8 25 -71 56 -43 21 -115 64 -159 96 -55 39 -85 55
-92 48 -7 -7 -14 -1 -24 18 -7 16 -27 37 -43 47 -171 106 -216 139 -211 152 3
8 1 17 -4 20 -4 3 -10 0 -12 -7 -3 -9 -47 9 -133 52 -70 35 -149 71 -174 80
-35 11 -47 20 -49 39 -3 18 0 22 11 18 9 -3 17 1 20 13 6 25 -3 33 -20 18 -18
-15 -33 5 -33 45 0 19 5 27 17 27 12 0 0 18 -37 55 -30 31 -60 53 -66 51 -10
-4 -33 63 -37 107 -1 9 -4 17 -8 17 -3 0 -4 23 -1 51 4 41 2 51 -9 47 -9 -3
-14 -19 -13 -47 1 -47 -4 -48 -64 -21 -36 16 -41 22 -33 37 5 10 12 26 15 36
4 11 16 17 38 17 30 0 31 1 12 15 -10 8 -27 15 -38 15 -16 0 -17 5 -12 33 7
34 27 54 64 64 14 3 64 -9 127 -31 100 -36 105 -36 130 -20 14 9 25 25 25 35
0 11 0 22 1 26 1 4 -14 14 -33 21 l-33 14 25 -27 c20 -21 22 -28 10 -35 -19
-12 -70 16 -70 38 0 15 -2 15 -10 2 -8 -12 -10 -11 -10 6 0 18 5 20 28 16 22
-4 25 -2 15 9 -18 18 -16 57 2 75 22 22 22 146 0 138 -37 -15 -55 39 -21 60
14 9 21 6 36 -11 31 -38 51 -28 110 54 63 88 231 263 252 263 59 0 161 91 262
234 65 91 96 123 109 110 3 -4 39 -8 79 -10 40 -3 93 -12 116 -21 32 -11 47
-12 55 -4 6 6 23 11 39 11 21 0 31 -8 43 -31 21 -39 32 -30 15 11 -7 17 -10
33 -8 36 3 2 31 9 61 14 31 5 77 18 102 29 41 18 45 18 54 3 7 -13 12 -10 24
20 10 24 23 37 41 40 14 3 23 2 21 -3 -3 -4 -1 -11 5 -14 6 -4 17 10 26 31
l15 36 112 -4 c101 -4 118 -7 172 -36 53 -27 243 -96 270 -97 6 0 11 -11 13
-25 2 -23 1 -24 -11 -7 -20 24 -27 21 -27 -13 0 -50 39 -40 104 25 30 30 61
55 70 55 9 0 16 6 16 13 0 20 37 50 52 44 8 -2 90 -60 183 -127 120 -86 169
-127 167 -138 -2 -10 -8 -18 -13 -20 -15 -6 -10 -38 9 -55 28 -25 31 -21 21
24 -6 23 -7 44 -4 47 7 8 50 -18 155 -92 168 -118 284 -228 264 -249 -3 -3 29
-24 71 -47 102 -57 120 -75 145 -145 21 -59 25 -81 28 -149 1 -22 12 -45 33
-67 26 -28 29 -36 20 -51 -10 -17 -8 -18 29 -16 55 4 53 19 -24 166 -36 67
-76 148 -91 180 -78 171 -94 189 -265 309 -47 32 -107 76 -133 96 -27 20 -55
37 -62 37 -8 0 -26 11 -40 25 -15 13 -62 48 -106 77 -43 29 -79 58 -79 65 0
14 -31 33 -56 33 -9 0 -26 9 -38 21 -12 11 -57 45 -100 76 -44 30 -109 75
-144 100 -80 56 -114 68 -261 93 -260 44 -376 53 -589 46 l-202 -6 -59 29
c-64 33 -82 33 -251 -4 -93 -20 -122 -38 -279 -180 -31 -28 -68 -57 -84 -65
-15 -7 -30 -24 -33 -36 -3 -12 -49 -60 -102 -106 -437 -380 -517 -457 -555
-538 -37 -81 -67 -184 -67 -231 0 -32 4 -38 30 -47 16 -6 53 -8 83 -5 67 7
137 -24 137 -60 0 -16 -3 -18 -9 -8 -5 7 -14 10 -20 6 -9 -5 -9 -10 0 -21 22
-27 1 -25 -69 5 -39 17 -87 31 -107 31 -19 0 -47 7 -61 16 -13 9 -27 14 -31
11 -3 -4 -14 5 -25 19 -18 22 -19 29 -8 75 7 27 10 59 7 69 -3 11 -1 20 4 20
5 0 9 15 9 34 0 19 4 36 9 38 5 2 28 41 51 88 35 70 58 100 134 173 50 48 102
92 115 98 18 7 22 15 17 32 -4 17 3 29 29 50 19 15 39 27 46 27 22 0 76 40 87
65 6 14 18 25 26 25 7 0 21 11 30 25 11 16 26 25 42 25 23 0 26 3 22 30 -3 20
0 30 9 30 7 0 18 9 25 20 9 13 19 18 35 14 17 -5 25 0 33 18 6 13 26 33 44 46
18 12 45 36 61 52 29 31 29 31 7 37 -12 3 -22 9 -22 13 0 4 21 28 47 54 l46
47 23 -22 c27 -25 28 -24 104 47 53 50 91 61 243 70 84 6 119 3 197 -14 75
-17 131 -21 270 -22 201 -1 308 -5 330 -13 8 -2 96 -17 195 -32 99 -15 198
-34 220 -42 22 -8 50 -17 63 -20 12 -3 22 -9 22 -14 0 -6 139 -105 218 -154
75 -47 182 -119 207 -138 17 -13 86 -62 155 -108 69 -47 163 -113 210 -148 47
-34 102 -74 122 -89 21 -15 38 -32 38 -38 0 -6 12 -21 26 -35 14 -13 32 -37
40 -52 11 -21 20 -26 35 -22 11 4 19 2 19 -4 0 -6 -5 -11 -10 -11 -6 0 7 -35
29 -77 21 -43 49 -103 62 -133 31 -75 108 -186 125 -182 20 4 39 -49 22 -60
-17 -10 -26 -10 -33 2 -3 6 -10 10 -15 10 -13 0 -21 -31 -11 -44 12 -15 -5
-56 -24 -56 -18 0 -19 -4 -2 -31 10 -17 9 -22 -6 -34 -18 -13 -18 -14 2 -27
30 -18 26 -31 -8 -23 -35 7 -52 -12 -27 -30 15 -12 13 -17 -20 -54 -21 -22
-46 -41 -57 -41 -10 0 -21 -9 -24 -20 -3 -10 -16 -26 -30 -35 -15 -10 -22 -22
-19 -31 5 -12 1 -14 -17 -8 -16 5 -8 -7 27 -40 26 -25 53 -46 59 -46 6 0 18
-7 27 -15 15 -14 23 -8 83 62 188 219 242 297 271 393 10 30 21 63 27 72 14
28 10 61 -11 88 -11 14 -20 29 -20 33 0 4 -20 58 -44 120 -23 62 -51 133 -60
158 -9 27 -48 83 -91 133 -40 47 -107 127 -147 177 -75 95 -118 133 -262 234
-48 33 -109 79 -138 102 -28 23 -138 104 -246 180 -107 76 -219 157 -249 181
-30 24 -75 56 -101 71 -66 38 -229 86 -342 101 -52 7 -148 23 -213 36 -139 28
-176 28 -497 -1z m-530 -430 c0 -8 -6 -15 -14 -15 -17 0 -28 14 -19 24 12 12
33 6 33 -9z m1280 5 c0 -5 -2 -10 -4 -10 -3 0 -8 5 -11 10 -3 6 -1 10 4 10 6
0 11 -4 11 -10z m410 -45 c0 -8 -6 -15 -14 -15 -17 0 -28 14 -19 24 12 12 33
6 33 -9z m-1765 -26 c10 -15 2 -19 -23 -12 -12 3 -19 9 -16 14 7 12 31 11 39
-2z m1833 -11 c-3 -7 -11 -13 -18 -13 -7 0 -15 6 -17 13 -3 7 4 12 17 12 13 0
20 -5 18 -12z m-620 -26 c2 -7 -3 -12 -12 -12 -9 0 -16 7 -16 16 0 17 22 14
28 -4z m-1243 -2 c-3 -5 -12 -10 -18 -10 -7 0 -6 4 3 10 19 12 23 12 15 0z
m405 -5 c0 -8 -7 -15 -15 -15 -26 0 -18 20 13 29 1 1 2 -6 2 -14z m1504 9 c9
-3 16 -11 16 -16 0 -7 -5 -6 -13 1 -10 8 -17 7 -25 -1 -9 -9 -12 -8 -12 5 0
18 9 21 34 11z m-1984 -54 c0 -5 -4 -10 -10 -10 -5 0 -10 5 -10 10 0 6 5 10
10 10 6 0 10 -4 10 -10z m2078 -21 c-2 -6 -7 -10 -11 -10 -4 1 -14 1 -23 1 -8
0 -12 5 -9 10 8 13 48 13 43 -1z m-2216 -141 c-7 -7 -12 -8 -12 -2 0 14 12 26
19 19 2 -3 -1 -11 -7 -17z m2428 -19 c0 -5 -9 -9 -20 -9 -11 0 -20 6 -20 14 0
9 7 12 20 9 11 -3 20 -9 20 -14z m-2465 -8 c3 -5 1 -12 -4 -15 -12 -8 -41 3
-41 15 0 12 37 12 45 0z m2525 -37 c0 -8 -4 -12 -10 -9 -5 3 -10 10 -10 16 0
5 5 9 10 9 6 0 10 -7 10 -16z m-2605 -28 c-27 -19 -40 -8 -19 15 12 13 21 16
28 9 7 -7 4 -14 -9 -24z m215 4 c0 -5 -4 -10 -10 -10 -5 0 -10 5 -10 10 0 6 5
10 10 10 6 0 10 -4 10 -10z m-261 -46 c-14 -18 -24 -11 -15 11 3 9 11 13 16
10 8 -5 7 -11 -1 -21z m-35 -36 c-8 -13 -20 1 -28 32 l-7 25 20 -24 c12 -12
18 -28 15 -33z m2766 32 c0 -5 -7 -10 -16 -10 -8 0 -12 5 -9 10 3 6 10 10 16
10 5 0 9 -4 9 -10z m135 -10 c3 -5 -1 -10 -9 -10 -9 0 -16 5 -16 10 0 6 4 10
9 10 6 0 13 -4 16 -10z m-67 -28 c2 -14 -2 -22 -11 -22 -17 0 -26 19 -19 38 7
19 27 9 30 -16z m-2895 -27 c-37 -16 -51 3 -21 28 21 18 23 18 35 1 11 -16 10
-19 -14 -29z m2998 -8 c-10 -9 -11 -8 -5 6 3 10 9 15 12 12 3 -3 0 -11 -7 -18z
m50 -110 c-13 -13 -26 -3 -16 12 3 6 11 8 17 5 6 -4 6 -10 -1 -17z m-3217 -30
c-3 -8 -12 -18 -20 -21 -11 -4 -10 0 3 18 20 26 27 28 17 3z m-44 -37 c0 -5
-4 -10 -10 -10 -5 0 -10 5 -10 10 0 6 5 10 10 10 6 0 10 -4 10 -10z m-90 -68
c0 -14 -38 -44 -50 -40 -14 4 17 48 36 48 8 0 14 -4 14 -8z m3510 -63 c0 -4
-9 -9 -20 -12 -11 -3 -18 -2 -17 1 2 4 7 16 11 27 6 16 9 17 16 5 6 -8 10 -18
10 -21z m-3583 -11 c-3 -8 -6 -5 -6 6 -1 11 2 17 5 13 3 -3 4 -12 1 -19z
m3613 -58 c0 -5 -7 -10 -16 -10 -8 0 -12 5 -9 10 3 6 10 10 16 10 5 0 9 -4 9
-10z m-3490 -75 c6 14 8 10 7 -17 -1 -21 -3 -38 -4 -38 -1 0 -9 3 -18 6 -13 6
-14 9 -3 16 9 7 7 8 -9 5 -13 -3 -26 0 -30 5 -3 7 -1 8 5 4 6 -3 17 4 24 16
12 22 12 22 16 3 l5 -20 7 20z m70 -11 c0 -8 -4 -12 -10 -9 -5 3 -10 13 -10
21 0 8 5 12 10 9 6 -3 10 -13 10 -21z m3455 -4 c3 -5 2 -10 -4 -10 -5 0 -13 5
-16 10 -3 6 -2 10 4 10 5 0 13 -4 16 -10z m85 -5 c0 -17 -2 -18 -24 -9 -23 9
-20 24 4 24 11 0 20 -7 20 -15z m-3540 -50 c0 -8 -4 -15 -9 -15 -13 0 -22 16
-14 24 11 11 23 6 23 -9z m3516 -51 c-6 -17 -8 -17 -24 0 -15 15 -15 18 -2 26
19 12 35 -3 26 -26z m-3831 -135 c-18 -68 -48 -133 -67 -145 -7 -5 -9 -2 -5 8
3 9 1 20 -4 25 -7 7 -2 22 13 45 13 18 34 57 47 86 14 29 26 50 28 48 2 -2 -3
-32 -12 -67z m3860 0 c11 -17 -1 -21 -15 -4 -8 9 -8 15 -2 15 6 0 14 -5 17
-11z m-105 -266 c0 -25 -1 -26 -16 -11 -9 9 -13 21 -10 27 13 20 26 11 26 -16z
m-3540 -97 c0 -3 -4 -8 -10 -11 -5 -3 -10 -1 -10 4 0 6 5 11 10 11 6 0 10 -2
10 -4z m-178 -41 c0 -5 -5 -11 -11 -13 -6 -2 -11 4 -11 13 0 9 5 15 11 13 6
-2 11 -8 11 -13z m238 -65 c0 -13 -5 -18 -15 -14 -12 5 -13 10 -4 20 15 19 19
18 19 -6z m-32 -41 c-3 -8 -7 -3 -11 10 -4 17 -3 21 5 13 5 -5 8 -16 6 -23z
m-20 -66 c-2 -9 -9 -18 -17 -21 -10 -3 -12 0 -8 12 4 10 1 19 -8 22 -8 4 -12
10 -9 15 8 14 46 -10 42 -28z m452 -203 c0 -5 -4 -10 -9 -10 -6 0 -13 5 -16
10 -3 6 1 10 9 10 9 0 16 -4 16 -10z m48 -138 c2 -7 -3 -12 -12 -12 -9 0 -16
7 -16 16 0 17 22 14 28 -4z m422 -217 c0 -8 -7 -15 -15 -15 -26 0 -18 20 13
29 1 1 2 -6 2 -14z"/>
<path d="M2407 5434 c-8 -8 1 -24 14 -24 5 0 9 7 9 15 0 15 -12 20 -23 9z"/>
<path d="M3350 5227 c0 -10 -6 -17 -12 -16 -43 5 -48 0 -48 -54 0 -51 1 -53
35 -66 38 -13 44 -25 19 -35 -25 -10 -32 -7 -39 15 -7 21 -7 21 -30 -4 -17
-18 -31 -23 -49 -20 -15 3 -26 1 -26 -6 0 -13 45 -25 65 -17 9 3 18 -1 21 -9
9 -22 34 -18 34 5 0 21 -1 21 175 24 30 1 30 2 36 66 4 36 6 66 5 67 -1 2 -13
4 -27 5 -18 2 -25 -2 -27 -19 -2 -13 1 -23 7 -23 16 0 14 -70 -1 -70 -7 -1
-29 -3 -49 -6 -21 -3 -40 -1 -43 5 -4 6 -8 37 -10 70 -2 33 -11 69 -20 82 -13
20 -16 20 -16 6z"/>
<path d="M1335 5171 c-27 -21 -93 -70 -146 -109 -90 -67 -97 -75 -108 -119 -7
-27 -25 -92 -42 -145 -33 -107 -41 -117 -136 -163 -53 -26 -60 -34 -81 -84
-36 -85 -45 -146 -39 -261 7 -145 55 -278 157 -435 137 -209 646 -637 803
-675 48 -11 70 -25 130 -77 112 -100 165 -134 381 -240 60 -30 136 -73 169
-95 33 -22 55 -34 51 -26 -11 18 -88 85 -139 123 -61 44 -165 129 -210 172
-22 21 -121 101 -220 177 -273 212 -396 317 -502 431 -245 264 -293 375 -312
714 -12 208 -5 318 28 432 26 91 41 117 129 222 113 136 144 177 140 187 -2 5
-25 -8 -53 -29z"/>
<path d="M3162 5108 c6 -16 36 -34 44 -25 9 9 -15 37 -33 37 -8 0 -13 -5 -11
-12z"/>
<path d="M3107 5087 c-9 -23 7 -120 21 -125 8 -2 12 10 12 40 0 24 5 49 12 56
8 8 8 15 -2 27 -15 19 -36 20 -43 2z"/>
<path d="M3957 5077 c-3 -8 -1 -20 4 -28 8 -12 12 -11 24 5 8 11 15 23 15 28
0 14 -38 9 -43 -5z"/>
<path d="M3546 5061 c5 -5 27 -6 49 -1 l40 8 -49 1 c-30 1 -46 -3 -40 -8z"/>
<path d="M3915 5050 c3 -5 10 -10 16 -10 5 0 9 5 9 10 0 6 -7 10 -16 10 -8 0
-12 -4 -9 -10z"/>
<path d="M3527 5033 c-11 -3 -16 -10 -13 -20 3 -8 6 -19 6 -24 0 -5 4 -9 10
-9 5 0 7 7 3 16 -4 11 1 22 12 30 19 14 15 16 -18 7z"/>
<path d="M3878 4995 c-6 -30 7 -42 27 -25 12 10 27 4 81 -29 36 -22 70 -41 75
-41 22 0 -6 22 -77 61 -40 22 -76 45 -80 50 -10 16 -22 9 -26 -16z"/>
<path d="M2680 4997 c0 -8 7 -17 15 -21 8 -3 15 -2 15 3 0 5 -7 14 -15 21 -12
10 -15 10 -15 -3z"/>
<path d="M3225 5000 c3 -5 10 -10 16 -10 5 0 9 5 9 10 0 6 -7 10 -16 10 -8 0
-12 -4 -9 -10z"/>
<path d="M2807 4905 c-13 -12 -13 -21 -4 -47 16 -45 15 -44 37 -20 12 12 16
22 9 22 -6 0 -9 7 -5 15 6 17 -2 45 -14 45 -5 0 -15 -7 -23 -15z"/>
<path d="M3015 4899 c-11 -17 1 -21 15 -4 8 9 8 15 2 15 -6 0 -14 -5 -17 -11z"/>
<path d="M4285 4900 c-3 -5 1 -10 10 -10 9 0 13 5 10 10 -3 6 -8 10 -10 10 -2
0 -7 -4 -10 -10z"/>
<path d="M4480 4880 c0 -3 15 -10 34 -16 29 -9 33 -8 29 6 -3 11 -14 17 -34
16 -16 -1 -29 -3 -29 -6z"/>
<path d="M3640 4876 c0 -2 7 -7 16 -10 8 -3 12 -2 9 4 -6 10 -25 14 -25 6z"/>
<path d="M4470 4815 c-11 -13 -11 -20 0 -40 7 -14 20 -25 27 -25 10 0 11 5 4
18 -6 10 -6 24 -1 32 17 28 -9 41 -30 15z"/>
<path d="M2558 4807 c-17 -6 -28 -18 -28 -29 0 -17 2 -17 30 4 17 12 30 25 30
30 0 4 -1 8 -2 7 -2 -1 -15 -6 -30 -12z"/>
<path d="M3645 4808 c-4 -9 -13 -14 -20 -12 -7 3 -16 0 -21 -7 -5 -9 -2 -10 9
-6 9 3 19 2 22 -3 4 -6 12 -10 18 -10 7 0 6 4 -3 10 -13 8 -13 10 1 10 9 0 22
-7 29 -15 7 -9 20 -15 29 -13 9 1 22 -1 29 -6 7 -4 16 -6 18 -3 7 7 -60 47
-79 47 -8 0 -17 6 -20 13 -3 8 -7 7 -12 -5z m65 -28 c13 -8 13 -10 -2 -10 -9
0 -20 5 -23 10 -8 13 5 13 25 0z"/>
<path d="M2481 4788 c-1 -9 -9 -18 -18 -20 -14 -2 -12 -8 11 -33 15 -16 25
-22 23 -13 -4 10 1 19 11 23 15 6 16 8 1 18 -9 7 -18 19 -22 27 -4 12 -6 12
-6 -2z"/>
<path d="M4640 4731 c0 -17 -4 -31 -10 -31 -5 0 -10 -7 -10 -16 0 -13 3 -14
14 -5 9 8 21 8 39 2 23 -9 27 -18 33 -71 4 -33 11 -63 15 -66 8 -5 13 10 10
29 -1 5 4 24 11 43 10 30 10 37 -2 44 -8 5 -15 15 -15 22 0 8 -12 13 -30 13
-26 0 -30 3 -30 29 0 16 -6 31 -12 33 -9 3 -13 -6 -13 -26z"/>
<path d="M1750 4740 c0 -5 5 -10 10 -10 6 0 10 5 10 10 0 6 -4 10 -10 10 -5 0
-10 -4 -10 -10z"/>
<path d="M4543 4715 c4 -22 7 -48 7 -57 0 -10 5 -18 10 -18 17 0 12 86 -7 101
-15 13 -16 11 -10 -26z"/>
<path d="M3498 4710 c-16 -17 -38 -35 -49 -40 -21 -12 -25 -35 -8 -46 12 -7
31 15 23 28 -7 12 34 10 57 -2 18 -10 19 -7 19 40 0 27 -3 50 -6 50 -3 0 -19
-14 -36 -30z"/>
<path d="M3985 4714 c-4 -16 -8 -34 -10 -41 -2 -6 3 -17 10 -23 19 -16 27 2
22 48 -5 44 -15 50 -22 16z"/>
<path d="M3793 4697 c-40 -27 -43 -40 -6 -26 18 7 28 6 33 -1 8 -13 93 -40
124 -40 24 0 15 11 -37 39 -21 12 -48 28 -60 35 -19 12 -26 11 -54 -7z"/>
<path d="M4020 4710 c0 -5 5 -10 11 -10 5 0 7 5 4 10 -3 6 -8 10 -11 10 -2 0
-4 -4 -4 -10z"/>
<path d="M4285 4690 c3 -5 8 -10 11 -10 2 0 4 5 4 10 0 6 -5 10 -11 10 -5 0
-7 -4 -4 -10z"/>
<path d="M4020 4645 c0 -8 4 -15 9 -15 5 0 11 7 15 15 3 9 0 15 -9 15 -8 0
-15 -7 -15 -15z"/>
<path d="M2430 4640 c0 -5 5 -10 11 -10 5 0 7 5 4 10 -3 6 -8 10 -11 10 -2 0
-4 -4 -4 -10z"/>
<path d="M2505 4641 c-3 -5 -1 -12 5 -16 5 -3 10 1 10 9 0 18 -6 21 -15 7z"/>
<path d="M3680 4637 c0 -13 101 -66 114 -61 28 11 12 29 -22 26 -23 -3 -33 2
-42 17 -6 12 -20 21 -30 21 -11 0 -20 -1 -20 -3z"/>
<path d="M2670 4610 c0 -11 4 -20 10 -20 5 0 14 9 20 20 9 17 8 20 -10 20 -13
0 -20 -7 -20 -20z"/>
<path d="M4470 4595 c0 -16 3 -24 8 -19 4 5 11 11 15 15 4 3 1 12 -8 19 -13
11 -15 9 -15 -15z"/>
<path d="M4581 4589 c-1 -36 -11 -41 -40 -23 -20 12 -17 7 11 -21 l36 -38 39
16 38 16 -32 0 c-27 1 -32 5 -41 39 -8 30 -10 32 -11 11z"/>
<path d="M3340 4592 c-81 -38 -94 -56 -93 -127 2 -87 13 -99 37 -40 15 34 23
39 59 36 15 -2 17 7 17 68 0 39 -1 71 -2 70 -2 0 -10 -4 -18 -7z"/>
<path d="M3890 4591 c-29 -7 -70 -33 -70 -43 0 -13 27 -9 40 6 6 8 28 16 47
18 20 2 38 9 41 16 4 13 -16 14 -58 3z"/>
<path d="M673 4545 c-11 -35 -24 -86 -39 -150 -3 -13 2 -24 15 -32 32 -20 42
12 39 125 -3 93 -4 95 -15 57z"/>
<path d="M2290 4551 c0 -11 9 -21 22 -24 29 -8 32 -3 16 22 -16 26 -38 27 -38
2z"/>
<path d="M2155 4550 c3 -5 10 -10 16 -10 5 0 9 5 9 10 0 6 -7 10 -16 10 -8 0
-12 -4 -9 -10z"/>
<path d="M4167 4549 c7 -7 15 -10 18 -7 3 3 -2 9 -12 12 -14 6 -15 5 -6 -5z"/>
<path d="M3895 4540 c-3 -5 1 -10 10 -10 9 0 13 5 10 10 -3 6 -8 10 -10 10 -2
0 -7 -4 -10 -10z"/>
<path d="M4235 4511 c8 -15 65 -44 72 -37 3 2 -14 14 -37 26 -23 12 -39 17
-35 11z"/>
<path d="M4146 4495 c-16 -12 -16 -15 -1 -38 17 -26 45 -43 45 -27 0 5 10 10
22 12 35 5 31 24 -10 46 -32 16 -41 18 -56 7z"/>
<path d="M3921 4496 c2 -2 14 -8 26 -14 17 -9 22 -9 27 3 4 11 -2 15 -26 15
-17 0 -29 -2 -27 -4z"/>
<path d="M3149 4468 c-7 -23 -4 -36 7 -34 21 3 29 16 10 16 -9 0 -14 5 -11 10
3 6 4 10 1 10 -3 0 -6 -1 -7 -2z"/>
<path d="M3190 4459 c0 -5 5 -7 10 -4 6 3 10 8 10 11 0 2 -4 4 -10 4 -5 0 -10
-5 -10 -11z"/>
<path d="M2222 4448 c6 -18 28 -21 28 -4 0 9 -7 16 -16 16 -9 0 -14 -5 -12
-12z"/>
<path d="M4240 4404 c-41 -29 -48 -45 -51 -119 -2 -33 -9 -63 -17 -71 -7 -8
-11 -20 -9 -27 4 -9 6 -9 6 1 1 6 5 12 10 12 4 0 6 -11 3 -25 -3 -16 0 -25 8
-25 20 0 180 130 180 146 0 7 6 13 12 12 23 -5 20 39 -4 62 -28 28 -80 60 -93
59 -5 0 -26 -11 -45 -25z"/>
<path d="M2191 4404 c0 -11 3 -14 6 -6 3 7 2 16 -1 19 -3 4 -6 -2 -5 -13z"/>
<path d="M3065 4409 c-10 -15 1 -23 20 -15 9 3 13 10 10 16 -8 13 -22 13 -30
-1z"/>
<path d="M4501 4400 c-24 -20 -47 -27 -37 -11 3 5 -4 11 -17 15 -54 14 -58 2
-9 -32 l27 -20 39 34 c41 36 39 48 -3 14z"/>
<path d="M4930 4405 c0 -8 7 -15 16 -15 14 0 14 3 4 15 -7 8 -14 15 -16 15 -2
0 -4 -7 -4 -15z"/>
<path d="M3978 4392 c11 -20 22 -190 15 -226 -4 -20 -12 -26 -30 -26 -30 0
-50 -19 -59 -54 -3 -14 -10 -29 -15 -32 -11 -7 -16 17 -31 170 -13 128 -13
130 -40 137 -20 5 -25 4 -21 -7 3 -9 -1 -14 -12 -14 -9 0 -13 5 -10 10 3 6 1
10 -4 10 -6 0 -11 -7 -11 -15 0 -8 7 -15 15 -15 8 0 15 -4 15 -10 0 -5 -6 -7
-13 -5 -9 4 -13 -39 -15 -192 -2 -109 -8 -202 -13 -207 -6 -6 -9 -5 -9 3 0 8
-6 11 -15 7 -8 -3 -15 0 -15 6 0 6 -7 4 -18 -5 -28 -25 -42 -6 -49 66 -5 55
-8 64 -19 52 -8 -8 -26 -12 -41 -9 -15 3 -24 2 -21 -2 4 -4 3 -15 -3 -26 -8
-15 -14 -17 -24 -8 -19 16 -25 -9 -25 -112 0 -76 -2 -89 -15 -84 -9 3 -15 0
-15 -10 0 -8 -11 -20 -25 -26 -14 -6 -24 -17 -21 -24 3 -7 -7 -18 -23 -25 -15
-7 -35 -25 -44 -41 -9 -16 -12 -26 -7 -23 6 3 10 2 10 -4 0 -5 -5 -13 -10 -16
-6 -4 -8 -10 -5 -15 10 -16 -13 -20 -55 -11 -47 10 -55 2 -66 -67 -3 -23 -15
-49 -25 -58 -11 -9 -19 -23 -19 -31 0 -7 -5 -13 -11 -13 -6 0 -9 -8 -6 -19 2
-10 -1 -18 -7 -17 -6 0 -12 -3 -13 -9 -2 -5 5 -10 15 -10 22 0 33 -15 26 -37
-3 -10 -3 -18 1 -18 12 0 63 38 160 119 279 234 400 334 417 344 25 16 23 34
-6 41 -37 9 -39 31 -4 34 23 2 31 -2 35 -18 3 -11 8 -20 11 -20 2 0 34 26 70
58 36 31 104 87 151 123 63 48 88 74 92 95 4 16 7 26 8 22 1 -9 41 28 41 38 0
3 -6 4 -12 2 -25 -9 -48 28 -56 90 -8 57 -13 66 -52 100 -52 45 -85 61 -72 34z"/>
<path d="M2150 4385 c0 -8 5 -15 10 -15 6 0 10 7 10 15 0 8 -4 15 -10 15 -5 0
-10 -7 -10 -15z"/>
<path d="M4090 4375 c7 -8 20 -15 29 -15 13 1 13 3 -3 15 -26 19 -42 19 -26 0z"/>
<path d="M2055 4370 c-3 -5 3 -10 14 -10 12 0 21 5 21 10 0 6 -6 10 -14 10 -8
0 -18 -4 -21 -10z"/>
<path d="M1960 4361 c0 -5 7 -12 16 -15 22 -9 24 -8 24 9 0 8 -9 15 -20 15
-11 0 -20 -4 -20 -9z"/>
<path d="M2250 4354 c0 -8 5 -12 10 -9 6 3 10 10 10 16 0 5 -4 9 -10 9 -5 0
-10 -7 -10 -16z"/>
<path d="M2221 4330 c1 -19 -4 -48 -11 -63 -12 -24 -12 -30 1 -38 8 -5 21 -8
29 -6 20 3 26 37 6 37 -12 0 -14 8 -10 36 2 20 -1 43 -6 52 -8 14 -10 10 -9
-18z"/>
<path d="M1905 4320 c-8 -13 4 -32 16 -25 12 8 12 35 0 35 -6 0 -13 -4 -16
-10z"/>
<path d="M2137 4315 c-13 -9 -15 -15 -7 -20 14 -8 34 9 29 23 -3 7 -11 6 -22
-3z"/>
<path d="M2903 4286 c-37 -28 -53 -48 -53 -64 0 -20 2 -22 23 -11 12 7 25 17
29 23 5 7 8 5 8 -5 0 -9 11 -24 25 -33 l25 -17 -1 49 c-1 27 0 53 3 58 3 5 3
16 -1 25 -5 13 -16 8 -58 -25z"/>
<path d="M2020 4295 c14 -16 48 -26 55 -15 7 11 -13 23 -43 26 -18 2 -21 0
-12 -11z"/>
<path d="M4480 4292 c0 -7 -4 -10 -10 -7 -14 9 -71 -37 -65 -53 3 -7 0 -10 -6
-7 -12 8 -41 -14 -34 -25 3 -5 1 -11 -5 -15 -5 -3 -10 -1 -10 5 0 6 -5 8 -10
5 -7 -4 -6 -14 1 -28 12 -22 12 -22 -10 -3 -11 11 -21 14 -21 8 0 -7 -7 -12
-15 -12 -22 0 -19 -6 27 -61 22 -27 39 -52 35 -55 -3 -3 -22 17 -42 45 -20 28
-39 51 -42 51 -3 0 -26 -16 -49 -36 -48 -38 -60 -67 -18 -39 25 16 27 16 55
-11 31 -30 41 -58 12 -32 -10 9 -24 13 -31 11 -7 -3 -10 1 -6 10 3 8 0 18 -7
23 -7 4 -10 3 -6 -3 4 -6 -4 -15 -17 -21 -20 -9 -25 -8 -30 4 -3 9 -11 12 -17
9 -7 -5 -4 -14 8 -28 l18 -22 -23 20 c-19 16 -25 17 -32 5 -5 -8 -5 -21 1 -31
5 -10 9 -20 9 -22 0 -8 -29 -2 -37 8 -4 4 -2 5 5 1 14 -8 17 10 2 19 -5 3 -76
-49 -156 -117 -81 -68 -166 -139 -190 -158 -145 -119 -304 -255 -304 -261 0
-4 11 -21 25 -37 14 -17 25 -34 25 -38 0 -5 -15 8 -33 29 l-32 38 -29 -26
c-27 -23 -28 -26 -13 -43 14 -15 14 -19 3 -19 -8 0 -14 5 -13 10 3 16 -17 17
-36 2 -18 -13 -16 -17 33 -66 l51 -53 34 34 c49 51 85 82 85 74 0 -4 12 5 26
20 15 14 31 26 36 26 5 0 6 4 3 10 -3 5 0 7 8 4 15 -5 31 21 22 37 -4 5 2 6
12 2 16 -5 15 -3 -3 18 -34 39 -39 56 -8 28 16 -15 36 -24 44 -21 17 6 81 54
125 94 28 26 28 28 12 46 -9 10 -17 22 -17 26 0 5 8 -2 18 -13 20 -26 41 -21
90 21 30 25 36 58 10 58 -6 0 -7 -7 -4 -16 6 -15 4 -15 -11 -3 -15 12 -16 12
-10 -4 9 -24 -10 -12 -25 16 -11 21 -10 21 7 7 17 -14 18 -13 12 4 -6 16 -5
17 8 6 19 -16 19 -6 -1 28 -10 15 -1 9 21 -15 20 -24 40 -43 43 -43 4 0 26 18
50 39 33 29 41 42 35 57 -6 17 -5 17 10 5 23 -18 32 -8 17 19 -9 16 -18 21
-36 17 -14 -2 -27 0 -31 6 -4 6 -1 7 7 2 10 -6 12 -4 6 10 -5 14 -4 15 7 7 17
-14 42 1 31 19 -6 11 -4 11 10 0 12 -10 13 -16 6 -21 -9 -5 -8 -13 1 -29 14
-21 29 -28 29 -13 0 4 -4 13 -10 20 -7 9 -7 9 2 2 17 -14 31 -12 25 4 -4 9 0
12 13 9 26 -7 35 15 14 38 -9 10 -14 19 -9 19 4 0 14 -8 21 -17 7 -10 15 -15
19 -12 3 4 -6 22 -21 40 l-28 34 37 -34 c34 -32 53 -33 25 -1 -11 12 -10 12 3
2 20 -15 52 -5 45 14 -3 8 0 11 8 8 19 -7 31 15 16 29 -10 10 -11 8 -6 -8 5
-14 4 -17 -4 -9 -6 6 -13 24 -16 39 -5 28 -4 28 14 12 10 -9 22 -14 25 -10 4
3 7 -1 7 -10 0 -10 5 -17 11 -17 6 0 8 9 3 22 -6 21 -6 22 12 8 18 -14 18 -14
5 2 -7 10 -18 15 -25 11 -8 -4 -8 -3 0 6 9 9 17 10 31 3 14 -8 25 -6 43 8 21
16 22 20 11 34 -8 9 -11 19 -7 23 3 4 13 -2 20 -13 8 -10 17 -17 19 -14 3 3
-3 16 -14 30 -14 17 -22 21 -26 12 -2 -6 -9 -10 -14 -6 -14 8 -11 -4 8 -34 17
-27 17 -27 -2 -10 -25 21 -66 89 -43 70 23 -18 50 -5 42 22 l-6 21 20 -21 c10
-11 25 -30 31 -42 6 -12 17 -22 23 -22 7 0 6 5 -2 15 -7 9 -10 18 -6 22 3 3 6
1 6 -5 0 -7 4 -12 10 -12 5 0 7 7 4 15 -4 8 -15 15 -25 15 -12 0 -19 7 -19 20
0 11 5 20 11 20 5 0 7 -4 4 -10 -3 -5 1 -10 9 -10 8 0 20 -9 26 -21 7 -11 14
-18 17 -15 3 3 -4 17 -16 32 -14 18 -18 30 -11 34 6 4 8 15 4 26 -4 10 7 0 25
-23 32 -44 48 -55 37 -27 -5 14 -4 15 9 4 21 -17 31 -5 14 17 -12 16 -12 17 2
6 27 -22 42 4 21 39 -9 15 -20 28 -25 28 -4 0 -5 5 -2 10 3 6 1 10 -4 10 -15
0 -14 -6 6 -38 17 -27 17 -27 -2 -10 -11 9 -24 17 -30 17 -5 0 -11 5 -13 13
-2 9 0 8 7 -2 6 -8 11 -10 11 -4 0 5 -7 19 -15 30 -9 12 -14 14 -15 6z m-10
-22 c0 -5 -4 -10 -10 -10 -5 0 -10 5 -10 10 0 6 5 10 10 10 6 0 10 -4 10 -10z
m30 -63 c0 -4 -7 -2 -15 7 -8 8 -15 21 -15 28 1 14 30 -20 30 -35z m-200 -170
c0 -6 -9 -2 -20 8 -11 10 -20 23 -20 28 0 6 9 2 20 -8 11 -10 20 -23 20 -28z
m-339 -199 c11 -21 11 -22 -4 -9 -10 7 -17 17 -17 22 0 15 9 10 21 -13z m87
-36 c20 -30 11 -28 -19 4 -13 15 -18 25 -10 22 8 -2 21 -14 29 -26z m-77 -19
c13 -16 12 -17 -3 -4 -17 13 -22 21 -14 21 2 0 10 -8 17 -17z m-11 -23 c12
-16 19 -30 16 -30 -2 0 -14 14 -26 30 -12 17 -19 30 -16 30 2 0 14 -13 26 -30z
m-52 -95 c-3 -3 -9 2 -12 12 -6 14 -5 15 5 6 7 -7 10 -15 7 -18z m-333 -165
c10 -11 16 -20 13 -20 -3 0 -13 9 -23 20 -10 11 -16 20 -13 20 3 0 13 -9 23
-20z m-25 -10 c0 -5 -2 -10 -4 -10 -3 0 -8 5 -11 10 -3 6 -1 10 4 10 6 0 11
-4 11 -10z m-9 -33 c12 -22 12 -22 -10 -3 -11 11 -21 23 -21 28 0 14 19 -1 31
-25z m-36 2 c11 -17 -1 -21 -15 -4 -8 9 -8 15 -2 15 6 0 14 -5 17 -11z m-27
-64 c13 -27 -6 -42 -28 -22 -7 7 -4 -2 8 -19 13 -19 17 -35 12 -44 -6 -9 -12
-5 -23 17 -20 37 -19 73 1 65 12 -4 12 -1 3 16 -9 17 -9 21 2 16 8 -3 19 -16
25 -29z m-38 -95 c0 -5 -2 -10 -4 -10 -3 0 -8 5 -11 10 -3 6 -1 10 4 10 6 0
11 -4 11 -10z"/>
<path d="M2260 4276 c0 -18 27 -29 36 -14 4 5 0 14 -7 19 -20 13 -29 11 -29
-5z"/>
<path d="M4601 4234 c-12 -14 -11 -16 4 -12 10 1 20 9 23 16 5 17 -10 15 -27
-4z"/>
<path d="M4816 4241 c-4 -7 -5 -15 -2 -18 9 -9 19 4 14 18 -4 11 -6 11 -12 0z"/>
<path d="M5055 4240 c3 -5 8 -10 11 -10 2 0 4 5 4 10 0 6 -5 10 -11 10 -5 0
-7 -4 -4 -10z"/>
<path d="M4460 4182 c0 -5 10 -17 21 -28 22 -19 22 -19 10 3 -12 24 -31 39
-31 25z"/>
<path d="M4830 4126 c0 -9 5 -16 10 -16 6 0 10 4 10 9 0 6 -4 13 -10 16 -5 3
-10 -1 -10 -9z"/>
<path d="M4744 4050 c1 -20 6 -30 17 -30 12 0 14 7 11 30 -6 39 -29 40 -28 0z"/>
<path d="M6246 4019 c-43 -135 -179 -309 -356 -455 -58 -48 -132 -111 -165
-140 -59 -51 -62 -53 -100 -44 -22 5 -59 10 -83 10 -41 0 -50 -6 -155 -98
-185 -161 -224 -193 -432 -353 -370 -283 -458 -345 -598 -415 -150 -76 -387
-147 -587 -175 -137 -20 -469 -17 -590 5 -342 61 -575 161 -847 362 -61 46
-156 112 -210 149 -54 36 -143 102 -198 146 -55 44 -136 97 -179 118 l-80 39
-27 -29 c-30 -32 -67 -49 -107 -49 -28 0 -116 40 -190 85 l-42 26 0 -80 0 -81
40 -20 c21 -11 57 -20 79 -20 22 0 73 -13 114 -30 42 -16 104 -37 139 -46 76
-19 142 -59 312 -190 322 -248 371 -283 473 -342 220 -126 412 -194 633 -226
379 -54 712 -29 1051 80 393 126 542 221 1029 654 96 85 202 178 236 207 l61
52 85 -2 86 -2 83 80 c193 187 288 287 344 365 72 100 99 131 92 109 -3 -8 -2
-34 3 -57 4 -24 4 -44 0 -47 -4 -2 -6 -15 -5 -27 1 -13 3 -33 4 -46 1 -17 6
-22 19 -20 11 2 25 -2 33 -8 8 -6 25 -15 39 -19 20 -6 23 -5 13 6 -16 17 -16
26 0 32 16 6 20 -26 8 -70 -7 -25 -6 -31 5 -26 8 3 14 0 14 -5 0 -26 116 -37
130 -13 6 11 9 12 10 3 0 -7 5 -10 11 -6 15 9 -38 37 -56 30 -7 -2 -18 1 -23
7 -13 15 -5 155 9 183 9 17 7 27 -5 46 -9 14 -13 27 -10 31 3 3 -5 3 -18 0
-22 -5 -23 -5 -3 10 19 15 19 15 -5 14 -14 0 -34 3 -45 7 -16 6 -17 6 -5 -3 9
-7 10 -11 3 -11 -21 0 -23 17 -8 53 8 20 12 42 9 50 -7 19 14 33 29 18 9 -9 8
-16 -1 -31 -10 -17 -10 -20 3 -20 9 0 20 11 25 25 10 26 50 36 50 13 0 -9 4
-8 10 2 13 20 13 33 0 25 -5 -3 -10 3 -10 14 0 22 -16 37 -22 20 -6 -18 -38
19 -38 44 0 22 -19 60 -21 42 0 -5 -4 -1 -9 10 -8 19 -9 19 -9 -3 -1 -13 -5
-20 -11 -17 -6 4 -8 14 -6 23 3 10 1 24 -4 32 -5 9 -5 19 1 26 6 7 6 15 1 18
-5 3 -17 -17 -26 -45z m24 -204 c0 -9 -6 -12 -15 -9 -8 4 -12 10 -9 15 8 14
24 10 24 -6z m20 -127 c0 -18 -2 -20 -9 -8 -6 8 -7 18 -5 22 9 14 14 9 14 -14z"/>
<path d="M1782 4038 c-7 -7 -12 -22 -12 -35 0 -21 4 -23 55 -23 59 0 101 14
109 37 10 25 -5 35 -25 17 -10 -9 -37 -20 -59 -24 -37 -7 -40 -6 -40 16 0 26
-10 30 -28 12z"/>
<path d="M5130 4040 c0 -5 4 -10 9 -10 6 0 13 5 16 10 3 6 -1 10 -9 10 -9 0
-16 -4 -16 -10z"/>
<path d="M1690 4020 c0 -5 5 -10 10 -10 6 0 10 5 10 10 0 6 -4 10 -10 10 -5 0
-10 -4 -10 -10z"/>
<path d="M4930 4010 c0 -17 -7 -20 -46 -20 -62 0 -53 -21 17 -39 73 -18 143
-6 147 27 3 20 -1 22 -38 22 -27 0 -43 5 -46 15 -9 22 -34 18 -34 -5z"/>
<path d="M752 3980 c-26 -22 -18 -30 21 -23 18 4 27 12 27 24 0 24 -19 24 -48
-1z"/>
<path d="M4615 3943 c-16 -14 -55 -47 -85 -73 -93 -81 -134 -112 -163 -122
-19 -7 -26 -15 -22 -27 3 -10 -7 -24 -30 -40 -19 -13 -35 -27 -35 -31 0 -15
-121 -102 -135 -96 -10 3 -15 19 -15 43 l0 38 -15 -25 c-27 -48 -28 -54 -13
-81 16 -26 15 -28 -18 -57 -19 -17 -34 -36 -34 -44 0 -8 3 -9 8 -3 14 20 74
35 89 23 25 -20 39 7 19 37 -17 26 -17 27 21 61 21 19 62 54 91 76 43 34 55
39 62 27 15 -23 35 6 35 49 0 27 5 39 22 47 19 10 93 68 188 148 36 30 65 35
65 12 0 -9 9 -15 25 -15 14 0 25 5 25 10 0 6 -7 10 -15 10 -8 0 -21 13 -27 29
l-13 30 -30 -26z"/>
<path d="M5115 3944 c-10 -10 -14 -26 -11 -37 3 -12 1 -26 -5 -33 -7 -8 -7
-14 1 -19 11 -7 23 20 33 73 7 37 5 39 -18 16z"/>
<path d="M2260 3925 c0 -8 5 -15 10 -15 6 0 10 7 10 15 0 8 -4 15 -10 15 -5 0
-10 -7 -10 -15z"/>
<path d="M6097 3913 c-4 -3 -7 -11 -7 -17 0 -6 5 -5 12 2 6 6 9 14 7 17 -3 3
-9 2 -12 -2z"/>
<path d="M323 3886 c17 -13 17 -15 2 -23 -15 -9 -15 -14 4 -69 l20 -59 0 47
c1 25 6 48 13 50 21 7 -6 63 -33 66 -23 2 -23 2 -6 -12z"/>
<path d="M676 3815 c11 -147 101 -296 281 -463 93 -85 196 -162 219 -162 7 0
14 15 17 33 3 17 7 40 9 49 2 11 -25 40 -77 84 -84 70 -233 211 -299 283 -53
58 -83 104 -123 186 l-33 70 6 -80z m334 -412 c0 -19 -3 -24 -10 -17 -6 6 -8
18 -4 27 9 24 14 21 14 -10z"/>
<path d="M1798 3883 c7 -3 16 -2 19 1 4 3 -2 6 -13 5 -11 0 -14 -3 -6 -6z"/>
<path d="M1860 3835 c0 -8 5 -15 10 -15 6 0 10 7 10 15 0 8 -4 15 -10 15 -5 0
-10 -7 -10 -15z"/>
<path d="M4674 3785 c-7 -18 4 -51 13 -41 3 3 8 17 9 31 3 27 -13 34 -22 10z"/>
<path d="M4600 3755 c0 -8 7 -15 15 -15 8 0 15 4 15 9 0 5 -7 11 -15 15 -9 3
-15 0 -15 -9z"/>
<path d="M4432 3748 c-15 -15 -16 -38 -2 -38 6 0 10 9 10 19 0 11 8 22 18 24
13 4 13 5 2 6 -9 0 -21 -4 -28 -11z"/>
<path d="M862 3739 c2 -7 10 -15 17 -17 8 -3 12 1 9 9 -2 7 -10 15 -17 17 -8
3 -12 -1 -9 -9z"/>
<path d="M415 3701 c3 -18 5 -37 5 -42 0 -23 18 -5 22 21 3 20 0 30 -8 30 -7
0 -15 6 -18 13 -4 6 -4 -3 -1 -22z"/>
<path d="M2090 3694 c11 -46 34 -73 43 -50 4 9 2 16 -3 16 -4 0 -14 16 -20 35
-15 46 -30 45 -20 -1z"/>
<path d="M2220 3701 c0 -5 7 -11 15 -15 9 -3 15 0 15 9 0 8 -7 15 -15 15 -8 0
-15 -4 -15 -9z"/>
<path d="M4793 3649 c-7 -7 -8 -20 0 -42 22 -70 26 -73 26 -22 1 57 -9 81 -26
64z"/>
<path d="M1875 3641 c-3 -5 -2 -12 3 -15 5 -3 9 1 9 9 0 17 -3 19 -12 6z"/>
<path d="M2216 3637 c-26 -19 -14 -47 20 -47 20 0 24 3 16 13 -5 6 -11 20 -13
30 -4 16 -6 16 -23 4z"/>
<path d="M5805 3629 c-4 -6 -4 -13 -1 -16 8 -8 36 5 36 17 0 13 -27 13 -35 -1z"/>
<path d="M6130 3631 c0 -5 5 -13 10 -16 6 -3 10 -2 10 4 0 5 -4 13 -10 16 -5
3 -10 2 -10 -4z"/>
<path d="M5090 3610 c0 -13 -13 -28 -35 -41 -19 -12 -35 -25 -35 -29 0 -5 23
-28 51 -52 45 -38 50 -46 45 -72 -9 -44 -34 -68 -56 -54 -9 6 -17 16 -17 22 1
33 -5 46 -19 46 -12 0 -15 -6 -10 -20 3 -11 9 -29 12 -40 6 -18 2 -20 -45 -20
-38 0 -51 -4 -51 -15 0 -34 146 -39 188 -7 20 16 23 30 31 142 9 122 9 125
-12 142 -29 23 -47 22 -47 -2z"/>
<path d="M6376 3608 c-3 -13 -6 -32 -6 -43 l1 -20 11 20 c6 11 15 23 20 26 10
6 0 39 -12 39 -4 0 -10 -10 -14 -22z"/>
<path d="M6108 3589 c-9 -9 -19 -28 -23 -41 -18 -58 -103 -164 -217 -270 -67
-62 -164 -155 -217 -207 -91 -90 -216 -201 -422 -376 -51 -44 -133 -117 -181
-162 -194 -180 -447 -332 -716 -429 -97 -36 -117 -40 -108 -25 4 5 2 20 -3 33
-9 21 -10 19 -10 -14 -1 -21 -3 -38 -4 -38 -2 0 -66 -15 -143 -34 -130 -32
-164 -39 -254 -51 -231 -32 -462 -42 -623 -26 -184 18 -316 46 -521 112 l-188
61 -30 -33 -30 -33 31 -25 c17 -14 31 -32 31 -38 0 -16 17 -17 22 -1 3 8 12 6
29 -5 29 -19 207 -87 229 -87 8 0 29 -7 45 -16 75 -40 377 -81 656 -91 130 -4
196 -10 192 -16 -4 -7 1 -8 13 -3 10 5 37 10 59 12 206 23 424 75 614 145 41
15 57 17 67 8 11 -9 14 -7 14 9 0 15 10 24 38 32 81 27 201 91 234 126 18 19
76 64 128 99 66 44 156 122 295 256 111 107 309 293 440 414 132 120 284 262
338 315 104 101 177 204 197 279 8 31 15 40 22 33 25 -25 -37 -174 -113 -273
-69 -89 -123 -141 -364 -353 -126 -111 -338 -306 -471 -432 -397 -380 -490
-441 -889 -586 -285 -103 -584 -153 -915 -152 -220 1 -320 11 -470 49 -227 57
-461 164 -492 225 -9 18 -24 40 -32 49 -14 14 -17 13 -28 -1 -7 -8 -41 -34
-76 -57 -34 -23 -62 -46 -62 -51 0 -22 -50 -22 -82 1 -41 28 -222 174 -302
243 -33 28 -79 65 -102 81 -158 109 -233 170 -221 178 8 6 6 7 -7 3 -14 -5
-30 5 -60 37 -23 24 -70 63 -106 87 -36 24 -69 48 -75 53 -5 4 -71 53 -145
108 -74 55 -153 113 -174 129 -47 35 -67 39 -40 8 18 -22 29 -32 84 -76 l25
-20 -40 -1 c-127 -1 -132 -4 -134 -83 -1 -39 -4 -36 298 -245 19 -12 40 -23
49 -23 20 0 146 -95 166 -125 9 -14 25 -25 35 -25 11 0 64 -35 118 -78 153
-121 168 -132 193 -132 19 0 123 -67 140 -90 3 -4 14 -10 25 -14 11 -3 40 -25
65 -49 25 -23 41 -39 36 -34 -14 10 -28 9 -21 -3 11 -18 192 -130 210 -130 3
0 5 11 5 25 l0 25 37 -24 c61 -40 86 -42 138 -12 l45 27 1 -38 c3 -69 4 -73
14 -70 9 2 9 35 2 111 -2 12 10 22 41 32 42 15 44 14 92 -15 58 -36 192 -92
312 -132 179 -58 441 -92 685 -88 121 2 145 0 155 -13 11 -14 24 -14 88 -7
146 19 287 60 658 196 41 14 44 14 57 -3 14 -18 14 -17 15 7 0 25 6 28 73 47
39 10 74 17 77 15 10 -10 -67 -64 -110 -78 -25 -8 -90 -32 -145 -55 -226 -92
-492 -168 -692 -196 -90 -12 -159 -15 -293 -11 -183 6 -282 20 -465 63 -60 14
-120 28 -133 31 -21 5 -22 3 -18 -48 4 -54 4 -54 57 -81 30 -15 66 -28 81 -28
15 0 65 -9 111 -20 136 -31 298 -45 522 -44 197 1 241 5 425 40 22 4 22 3 5
-5 -18 -9 -17 -10 8 -10 15 -1 27 3 27 8 0 5 57 28 128 52 70 23 138 48 152
55 24 11 26 11 27 -9 2 -15 0 -18 -6 -8 -8 13 -14 11 -92 -35 -22 -13 -6 -36
19 -27 8 4 21 -2 29 -13 9 -12 16 -15 21 -8 4 6 20 14 35 18 27 6 29 10 25 51
-3 41 -1 45 19 45 12 0 23 4 25 10 5 16 47 -1 54 -22 5 -16 8 -18 15 -7 5 8 9
25 10 39 0 21 2 22 8 7 7 -18 8 -18 21 -1 9 11 10 15 3 10 -7 -4 -13 -3 -13 3
0 6 17 9 37 8 27 -1 38 2 38 13 1 23 30 83 47 98 12 10 17 10 27 -1 6 -8 25
-12 43 -11 18 2 72 5 121 8 79 4 87 2 87 -14 0 -18 14 -20 65 -10 23 5 46 -1
40 -10 -10 -16 24 -23 42 -9 15 12 16 12 11 -3 -6 -14 -2 -15 23 -8 34 10 35
7 10 -28 -15 -22 -18 -42 -15 -112 4 -92 9 -99 77 -104 34 -3 35 11 1 20 -20
5 -24 11 -21 28 13 53 19 176 9 176 -6 0 -16 17 -23 38 -6 20 -20 45 -30 55
-22 21 -23 29 -7 45 19 19 37 14 44 -12 7 -29 61 -52 75 -33 4 5 15 4 27 -2
24 -13 38 9 19 29 -9 10 -9 11 1 6 7 -4 15 -1 18 8 3 9 15 16 25 16 13 0 19 7
19 24 0 13 3 26 8 28 4 2 14 23 22 48 15 45 50 69 50 34 0 -10 8 -27 18 -38
17 -21 17 -21 -4 -4 -11 10 -23 18 -26 18 -9 0 -31 -118 -25 -133 4 -10 19
-13 51 -12 36 2 46 -1 46 -13 0 -8 -7 -20 -17 -27 -14 -11 -13 -13 11 -19 36
-9 59 10 51 41 -5 21 -4 22 15 11 11 -7 20 -18 20 -25 0 -7 5 -13 11 -13 5 0
7 -4 4 -10 -3 -5 -1 -10 6 -10 6 0 9 -8 6 -20 -3 -11 -1 -23 4 -26 15 -9 6
-17 -138 -125 -76 -57 -160 -122 -188 -145 -145 -121 -456 -334 -487 -334 -4
0 -32 -13 -61 -29 -140 -78 -523 -181 -822 -220 -140 -19 -456 -33 -585 -26
-354 18 -703 86 -997 196 -227 85 -521 225 -553 264 -8 9 -30 25 -49 35 l-36
18 3 120 3 120 35 6 c38 8 44 25 14 44 -25 15 -26 32 -1 32 10 0 34 6 52 14
19 7 40 11 48 8 9 -3 11 0 6 7 -4 8 -1 11 10 9 41 -7 22 22 -30 46 -39 17 -54
30 -49 38 4 7 -12 -5 -35 -27 -89 -84 -111 -138 -126 -310 -3 -38 -8 -86 -11
-105 -5 -30 -7 -32 -16 -16 -6 10 -10 36 -10 57 1 47 -14 60 -23 21 -9 -41 23
-225 41 -238 8 -7 19 -27 24 -46 9 -31 22 -40 222 -140 398 -201 704 -299
1148 -369 167 -26 597 -37 801 -20 328 27 716 124 1009 250 339 146 1064 729
1346 1081 238 298 359 520 441 804 35 122 42 267 18 362 -9 38 -20 74 -24 79
-3 6 -4 59 -2 118 3 87 0 116 -14 147 -16 36 -56 61 -63 40 -2 -6 -21 -10 -42
-10 -51 0 -57 -13 -20 -43 l29 -25 -37 5 c-27 4 -42 1 -51 -10 -7 -9 -19 -13
-27 -10 -10 4 -12 0 -7 -12 7 -21 -21 -47 -43 -38 -9 3 -14 -2 -14 -17 0 -11
-4 -19 -9 -15 -5 3 -12 -3 -14 -12 -3 -10 -5 1 -6 25 -1 27 3 42 12 42 9 0 8
3 -2 9 -7 5 -15 24 -16 42 -5 49 -44 188 -66 231 -21 42 -24 69 -8 85 6 6 7
13 2 15 -4 3 -15 -3 -25 -13z m-41 -428 c-14 -38 -35 -84 -48 -102 -65 -88
-416 -419 -444 -419 -20 0 -19 30 1 58 8 12 48 50 87 84 149 127 282 255 324
313 27 37 53 90 71 144 l27 85 3 -47 c2 -30 -6 -71 -21 -116z m250 -173 c-3
-8 -6 -5 -6 6 -1 11 2 17 5 13 3 -3 4 -12 1 -19z m223 -213 c-37 -189 -163
-484 -288 -675 -154 -234 -348 -452 -577 -647 -377 -320 -763 -591 -966 -678
-145 -62 -458 -154 -644 -189 -243 -45 -322 -51 -655 -50 -304 0 -336 2 -495
27 -278 45 -536 114 -771 207 -185 73 -498 235 -534 277 -27 30 -39 63 -24 63
3 0 53 -27 112 -59 157 -87 367 -184 497 -231 376 -136 666 -197 1033 -220
191 -11 509 2 698 30 282 41 661 152 855 251 239 123 726 491 1037 784 316
299 566 701 677 1090 10 33 21 65 25 70 4 6 11 28 16 50 l8 40 4 -40 c2 -22
-2 -67 -8 -100z m-320 96 c0 -14 -5 -18 -19 -14 -15 4 -20 -3 -25 -31 -5 -25
-12 -36 -24 -35 -10 0 -12 3 -4 6 22 9 13 20 -13 15 -15 -2 -25 0 -25 7 0 6 0
14 0 19 0 4 8 7 18 7 10 1 28 11 40 23 27 27 52 29 52 3z m-97 -156 c26 -7 27
-8 10 -22 -10 -8 -12 -12 -5 -8 8 4 12 -2 12 -19 0 -13 3 -32 6 -40 5 -12 2
-15 -12 -9 -14 5 -16 3 -11 -11 4 -10 7 -20 7 -22 0 -2 6 -4 14 -4 7 0 20 -7
27 -16 11 -14 10 -18 -6 -30 -16 -12 -19 -28 -19 -109 -1 -52 0 -95 2 -95 1 0
12 9 24 20 12 11 28 20 35 20 7 0 17 9 23 20 6 11 16 20 23 20 8 0 7 -4 -3
-10 -12 -8 -12 -10 3 -15 20 -8 14 -21 -51 -109 -25 -33 -47 -63 -48 -65 -5
-6 -63 23 -58 30 8 14 -14 19 -40 9 -30 -11 -32 -23 -11 -64 8 -15 15 -34 15
-41 0 -7 7 -15 15 -19 8 -3 15 -9 15 -14 0 -11 -162 -182 -172 -182 -5 0 -8
24 -8 53 l0 54 44 -2 c35 -2 45 2 49 16 3 11 -3 23 -17 32 -82 52 -148 60
-154 19 -6 -43 -27 -16 -30 39 -3 53 -2 55 28 66 30 11 30 12 13 32 -12 14
-16 34 -14 63 3 43 19 74 28 52 2 -6 10 -20 17 -30 14 -18 15 -18 34 0 25 22
64 14 55 -11 -5 -13 -2 -15 18 -10 13 4 29 7 34 8 6 0 1 4 -10 9 -20 9 -20 9
1 9 28 1 44 20 44 54 0 25 -2 27 -15 17 -21 -18 -55 -3 -55 25 0 13 -10 31
-22 39 -12 9 -18 16 -13 16 6 0 11 11 11 25 1 14 -2 22 -7 20 -14 -9 -51 73
-41 92 6 11 11 12 16 4 4 -6 12 -11 18 -11 6 0 1 11 -12 25 -27 28 -17 34 13
8 19 -17 20 -17 14 -1 -4 12 5 29 26 52 25 26 38 33 59 29 14 -3 29 0 33 7 5
8 10 9 14 2 3 -6 19 -14 34 -17z m237 -22 c0 -11 -4 -11 -20 -3 -11 6 -17 16
-13 25 4 12 9 13 19 4 8 -6 14 -18 14 -26z m-517 -20 c5 -26 3 -31 -8 -26 -15
5 -21 44 -8 56 8 9 9 8 16 -30z m-39 -18 c4 -13 -20 -35 -38 -35 -8 0 -7 35 1
43 11 12 31 8 37 -8z m585 -4 c19 -17 21 -23 10 -42 l-11 -22 -14 24 c-12 22
-19 59 -11 59 2 0 14 -9 26 -19z m-5395 -6 c15 -8 38 -12 51 -9 35 9 136 -33
191 -78 27 -22 49 -45 49 -52 0 -6 13 -13 29 -16 36 -6 45 -27 14 -32 -41 -6
-26 -32 25 -45 53 -13 77 -28 77 -49 0 -8 5 -14 11 -14 5 0 7 5 4 10 -3 6 -1
10 4 10 20 0 11 -20 -11 -30 -13 -5 -21 -9 -18 -10 32 -9 55 -8 63 2 6 9 7 8
3 -4 -3 -10 -2 -18 2 -18 5 0 19 -10 32 -22 14 -13 28 -22 33 -20 5 1 6 -2 2
-8 -3 -5 -1 -10 5 -10 7 0 9 -8 5 -20 -4 -12 -1 -28 5 -36 11 -12 14 -12 25 3
12 16 16 15 53 -10 27 -20 53 -28 82 -29 35 0 51 -8 103 -52 34 -29 99 -78
145 -110 45 -32 82 -60 82 -63 0 -6 -36 16 -85 51 -16 12 -43 30 -60 41 -30
18 -30 18 -15 -1 19 -25 31 -34 113 -95 50 -38 67 -57 67 -75 0 -13 -4 -24 -9
-24 -12 0 -298 204 -330 236 l-25 23 23 25 c13 14 18 26 13 30 -6 3 -20 -7
-32 -24 -27 -38 -39 -38 -89 3 -22 17 -83 64 -136 102 -53 39 -178 132 -278
209 -100 76 -200 149 -223 162 -23 13 -49 33 -59 44 -18 19 -17 20 6 20 13 0
37 -7 53 -15z m4906 -20 c0 -9 -6 -12 -15 -9 -8 4 -12 10 -9 15 8 14 24 10 24
-6z m341 -62 c1 -16 1 -31 1 -34 -1 -4 9 -5 21 -2 l22 5 -22 -19 c-12 -10 -25
-30 -28 -45 -4 -16 -14 -28 -22 -28 -13 0 -13 2 -2 17 8 9 9 14 2 10 -8 -5
-11 3 -9 25 1 18 -2 38 -7 45 -13 19 2 53 24 53 14 0 19 -7 20 -27z m-851
-124 c0 -5 -6 -9 -14 -9 -15 0 -28 24 -19 34 7 7 33 -13 33 -25z m870 -9 c0
-5 -2 -10 -4 -10 -3 0 -8 5 -11 10 -3 6 -1 10 4 10 6 0 11 -4 11 -10z m-330
-43 c0 -7 -11 -12 -24 -12 -23 0 -23 1 -9 17 16 18 33 16 33 -5z m-120 -27 c0
-5 -5 -10 -11 -10 -5 0 -7 5 -4 10 3 6 8 10 11 10 2 0 4 -4 4 -10z m345 -219
c-19 -20 -36 -4 -28 27 5 22 6 22 25 6 17 -16 17 -19 3 -33z m-1145 -25 c0
-16 -18 -31 -27 -22 -8 8 5 36 17 36 5 0 10 -6 10 -14z m727 -33 c6 -29 7 -52
2 -57 -15 -16 -11 -24 13 -28 29 -4 34 -25 8 -33 -23 -7 -23 -42 0 -37 8 2 27
4 42 4 15 1 25 5 22 10 -3 4 -2 8 2 8 13 0 64 -53 64 -66 0 -13 -307 -304
-321 -304 -4 0 -5 8 -2 19 3 10 0 22 -6 25 -19 12 -12 26 10 23 34 -6 66 35
74 93 l7 51 -33 -3 c-21 -2 -39 3 -47 12 -11 13 -15 12 -28 -7 -9 -13 -22 -23
-29 -23 -21 0 -24 26 -5 37 22 14 32 60 14 67 -7 3 -18 -1 -24 -9 -6 -8 -18
-11 -26 -8 -11 4 -12 9 -5 16 16 16 13 30 -4 23 -9 -3 -15 0 -15 9 0 22 22 30
32 11 14 -25 45 -19 70 14 12 17 25 30 30 30 12 0 10 -38 -3 -45 -6 -4 -8 -13
-5 -21 3 -7 0 -11 -7 -8 -7 2 -13 -3 -13 -14 0 -28 35 -16 42 14 3 13 12 24
20 24 8 0 14 4 14 9 0 5 10 11 21 14 20 5 21 10 15 56 -4 33 -3 51 4 51 21 0
9 16 -20 27 -32 12 -44 47 -12 36 9 -3 22 -10 29 -15 13 -10 37 24 26 36 -3 3
2 6 13 6 15 0 22 -11 31 -47z m-147 -23 c0 -5 -2 -10 -4 -10 -3 0 -8 5 -11 10
-3 6 -1 10 4 10 6 0 11 -4 11 -10z m-110 -95 c0 -8 -7 -15 -15 -15 -16 0 -20
12 -8 23 11 12 23 8 23 -8z m-92 -73 c2 -7 -2 -10 -12 -6 -9 3 -16 11 -16 16
0 13 23 5 28 -10z m81 -117 c9 -36 9 -38 -4 -21 -8 11 -15 24 -15 29 0 11 -25
-14 -33 -33 -4 -11 -6 -9 -6 5 -1 37 11 66 25 61 8 -3 14 0 15 7 1 15 5 4 18
-48z m-279 -81 c0 -8 -4 -12 -10 -9 -5 3 -10 13 -10 21 0 8 5 12 10 9 6 -3 10
-13 10 -21z m-900 -295 c0 -5 -4 -9 -10 -9 -5 0 -10 7 -10 16 0 8 5 12 10 9 6
-3 10 -10 10 -16z"/>
<path d="M6107 2593 c-4 -3 -7 -11 -7 -17 0 -6 5 -5 12 2 6 6 9 14 7 17 -3 3
-9 2 -12 -2z"/>
<path d="M6041 2551 c-14 -11 -32 -17 -40 -14 -11 3 -12 2 -4 -4 6 -4 15 -21
18 -36 7 -25 11 -28 34 -22 43 11 46 11 45 -7 -1 -10 3 -15 8 -12 5 3 7 13 3
22 -3 8 0 19 7 24 11 6 10 10 0 17 -8 4 -12 12 -10 16 1 4 -6 14 -17 21 -17
11 -24 10 -44 -5z"/>
<path d="M6005 2426 c-11 -8 -14 -15 -8 -19 6 -4 16 0 23 8 17 21 8 28 -15 11z"/>
<path d="M6166 2297 c3 -10 9 -15 12 -12 3 3 0 11 -7 18 -10 9 -11 8 -5 -6z"/>
<path d="M5950 2211 c0 -6 5 -13 10 -16 6 -3 10 1 10 9 0 9 -4 16 -10 16 -5 0
-10 -4 -10 -9z"/>
<path d="M5868 2143 c7 -3 16 -2 19 1 4 3 -2 6 -13 5 -11 0 -14 -3 -6 -6z"/>
<path d="M6027 2139 c7 -7 15 -10 18 -7 3 3 -2 9 -12 12 -14 6 -15 5 -6 -5z"/>
<path d="M5985 2121 c-3 -6 3 -9 14 -8 11 0 17 5 15 9 -7 11 -22 10 -29 -1z"/>
<path d="M1799 2096 c17 -20 71 -50 71 -39 0 5 -19 19 -43 32 -31 18 -38 20
-28 7z"/>
<path d="M5680 2010 c0 -5 5 -10 11 -10 5 0 7 5 4 10 -3 6 -8 10 -11 10 -2 0
-4 -4 -4 -10z"/>
<path d="M5705 1990 c-8 -13 -1 -24 14 -19 6 3 7 10 2 18 -6 10 -10 10 -16 1z"/>
<path d="M6417 3583 c-4 -24 -4 -26 8 -10 17 23 24 21 18 -4 -6 -21 -6 -21 22
-3 25 17 26 19 9 31 -29 21 -51 16 -57 -14z"/>
<path d="M687 3575 c28 -134 97 -250 228 -384 l102 -105 31 13 c61 25 58 32
-46 122 -134 117 -191 184 -309 365 -11 17 -12 15 -6 -11z"/>
<path d="M5785 3589 c-11 -17 1 -21 15 -4 8 9 8 15 2 15 -6 0 -14 -5 -17 -11z"/>
<path d="M4482 3578 c5 -15 28 -18 29 -3 0 6 -7 12 -17 13 -10 3 -15 -1 -12
-10z"/>
<path d="M2516 3532 c-3 -6 -1 -14 5 -17 15 -10 25 3 12 16 -7 7 -13 7 -17 1z"/>
<path d="M4390 3524 c0 -8 5 -12 10 -9 6 4 8 11 5 16 -9 14 -15 11 -15 -7z"/>
<path d="M396 3514 c-8 -20 -3 -27 18 -22 12 2 13 6 2 21 -13 16 -14 16 -20 1z"/>
<path d="M4812 3510 c0 -14 2 -19 5 -12 2 6 2 18 0 25 -3 6 -5 1 -5 -13z"/>
<path d="M4510 3480 c0 -5 5 -10 10 -10 6 0 10 5 10 10 0 6 -4 10 -10 10 -5 0
-10 -4 -10 -10z"/>
<path d="M4626 3451 c-15 -28 -15 -30 5 -36 25 -8 29 -5 32 30 3 39 -19 42
-37 6z"/>
<path d="M4810 3470 c0 -5 9 -10 21 -10 11 0 17 5 14 10 -3 6 -13 10 -21 10
-8 0 -14 -4 -14 -10z"/>
<path d="M4886 3455 c-4 -14 -2 -34 3 -44 7 -12 7 -30 1 -52 -5 -18 -7 -35 -5
-38 11 -11 23 17 34 79 8 50 8 66 -2 72 -19 12 -24 10 -31 -17z"/>
<path d="M393 3455 c-13 -14 -8 -71 7 -80 10 -6 21 78 12 87 -4 3 -13 0 -19
-7z"/>
<path d="M542 3450 c0 -14 2 -19 5 -12 2 6 2 18 0 25 -3 6 -5 1 -5 -13z"/>
<path d="M6375 3459 c-9 -14 -2 -20 14 -10 8 6 9 11 3 15 -6 3 -14 1 -17 -5z"/>
<path d="M6190 3450 c0 -5 7 -10 15 -10 8 0 15 -4 15 -10 0 -15 17 -12 23 4 4
10 1 13 -7 10 -8 -3 -17 -1 -21 5 -8 14 -25 14 -25 1z"/>
<path d="M3947 3443 c-13 -12 -8 -65 6 -60 6 2 11 15 9 28 -3 23 -3 23 11 5 8
-11 19 -16 26 -12 6 4 18 2 26 -4 8 -7 15 -9 16 -4 1 5 5 -2 9 -16 l8 -25 1
27 c1 22 -4 29 -26 34 -16 4 -30 10 -33 14 -8 11 -46 21 -53 13z"/>
<path d="M6493 3404 c0 -7 4 -14 9 -14 4 0 8 -7 8 -15 0 -8 5 -15 10 -15 17 0
11 39 -8 49 -14 8 -19 6 -19 -5z"/>
<path d="M4500 3370 c0 -16 5 -30 10 -30 6 0 10 14 10 30 0 17 -4 30 -10 30
-5 0 -10 -13 -10 -30z"/>
<path d="M4640 3390 c0 -5 5 -10 11 -10 5 0 7 5 4 10 -3 6 -8 10 -11 10 -2 0
-4 -4 -4 -10z"/>
<path d="M6204 3379 c0 -10 6 -19 13 -19 21 0 24 19 5 29 -14 8 -18 6 -18 -10z"/>
<path d="M3943 3339 c-55 -50 -71 -69 -59 -69 3 0 18 10 33 23 69 57 97 86 91
92 -3 4 -32 -17 -65 -46z"/>
<path d="M4225 3380 c-3 -5 -1 -10 4 -10 6 0 11 5 11 10 0 6 -2 10 -4 10 -3 0
-8 -4 -11 -10z"/>
<path d="M6380 3380 c8 -5 22 -9 30 -9 10 0 8 3 -5 9 -27 12 -43 12 -25 0z"/>
<path d="M526 3371 c-4 -5 -1 -33 5 -63 l12 -53 15 53 c13 46 13 55 1 63 -18
11 -26 11 -33 0z"/>
<path d="M2891 3356 c-13 -14 -21 -30 -19 -36 5 -15 58 27 58 46 0 21 -13 17
-39 -10z"/>
<path d="M6460 3370 c0 -5 7 -10 15 -10 8 0 15 5 15 10 0 6 -7 10 -15 10 -8 0
-15 -4 -15 -10z"/>
<path d="M2742 3358 c3 -7 15 -14 29 -16 23 -2 23 -2 5 13 -24 18 -39 20 -34
3z"/>
<path d="M2456 3352 c-8 -13 21 -49 44 -55 11 -3 20 -1 20 4 0 5 -4 9 -8 9 -5
0 -14 11 -20 25 -12 25 -26 32 -36 17z"/>
<path d="M3301 3336 l-23 -24 26 2 c17 0 24 6 21 14 -3 10 0 10 16 1 12 -6 18
-17 15 -25 -3 -9 -2 -12 5 -9 6 4 20 -1 32 -12 12 -10 4 2 -18 27 -21 25 -42
46 -45 48 -3 1 -16 -8 -29 -22z"/>
<path d="M3030 3315 c0 -14 5 -25 10 -25 6 0 10 11 10 25 0 14 -4 25 -10 25
-5 0 -10 -11 -10 -25z"/>
<path d="M4425 3330 c-9 -14 23 -63 35 -55 16 10 12 30 -9 49 -13 12 -21 14
-26 6z"/>
<path d="M3746 3311 c-11 -13 -14 -21 -7 -26 6 -3 11 1 11 9 0 10 6 13 15 10
8 -4 15 -1 15 4 0 20 -17 21 -34 3z"/>
<path d="M4266 3321 c-9 -14 2 -51 15 -51 11 0 12 30 0 49 -6 9 -11 10 -15 2z"/>
<path d="M4704 3305 c-4 -9 0 -23 9 -32 21 -21 49 -9 45 19 -4 28 -45 38 -54
13z"/>
<path d="M1390 3300 c0 -5 7 -10 16 -10 8 0 12 5 9 10 -3 6 -10 10 -16 10 -5
0 -9 -4 -9 -10z"/>
<path d="M4110 3296 c0 -9 7 -16 16 -16 17 0 14 22 -4 28 -7 2 -12 -3 -12 -12z"/>
<path d="M4488 3286 c-22 -16 -23 -26 -4 -26 8 0 16 -5 18 -11 5 -16 68 -1 68
16 0 7 -8 15 -17 18 -10 2 -25 7 -33 11 -8 3 -23 -1 -32 -8z"/>
<path d="M4882 3283 c-19 -14 -25 -14 -32 -3 -6 10 -16 6 -40 -19 -18 -18 -39
-30 -46 -27 -7 3 -15 -3 -18 -12 -6 -18 -85 -83 -148 -121 -38 -23 -52 -61
-23 -61 8 0 15 -8 16 -17 0 -15 3 -14 16 5 8 12 23 22 33 22 10 0 66 46 125
103 59 56 118 108 131 115 13 7 24 17 24 22 0 14 -11 12 -38 -7z"/>
<path d="M678 3253 c-31 -8 -19 -23 18 -23 31 0 35 2 24 15 -7 8 -15 14 -19
14 -3 -1 -14 -3 -23 -6z"/>
<path d="M3810 3215 c-21 -22 -40 -33 -50 -30 -10 4 -11 3 -5 -3 6 -5 20 -13
32 -16 18 -6 24 -2 29 18 4 17 13 26 25 26 20 0 23 8 11 27 -6 9 -18 3 -42
-22z"/>
<path d="M4125 3240 c3 -5 11 -10 16 -10 6 0 7 5 4 10 -3 6 -11 10 -16 10 -6
0 -7 -4 -4 -10z"/>
<path d="M3942 3210 c2 -19 8 -34 13 -33 17 3 17 27 0 48 -15 19 -15 18 -13
-15z"/>
<path d="M4421 3213 c1 -15 4 -39 9 -53 6 -21 8 -22 14 -8 4 9 6 31 4 49 -4
41 -28 52 -27 12z"/>
<path d="M2675 3220 c3 -5 10 -10 16 -10 5 0 9 5 9 10 0 6 -7 10 -16 10 -8 0
-12 -4 -9 -10z"/>
<path d="M3355 3220 c3 -5 11 -10 16 -10 6 0 7 5 4 10 -3 6 -11 10 -16 10 -6
0 -7 -4 -4 -10z"/>
<path d="M3740 3219 c0 -5 5 -7 10 -4 6 3 10 8 10 11 0 2 -4 4 -10 4 -5 0 -10
-5 -10 -11z"/>
<path d="M3330 3199 c0 -5 5 -7 10 -4 6 3 10 8 10 11 0 2 -4 4 -10 4 -5 0 -10
-5 -10 -11z"/>
<path d="M3709 3193 c-13 -16 -12 -17 4 -4 16 13 21 21 13 21 -2 0 -10 -8 -17
-17z"/>
<path d="M691 3174 c0 -11 3 -14 6 -6 3 7 2 16 -1 19 -3 4 -6 -2 -5 -13z"/>
<path d="M2540 3181 c0 -6 5 -13 10 -16 6 -3 10 1 10 9 0 9 -4 16 -10 16 -5 0
-10 -4 -10 -9z"/>
<path d="M3620 3123 c-73 -60 -78 -77 -7 -24 30 23 58 49 61 57 7 19 9 20 -54
-33z"/>
<path d="M4247 3163 c-7 -14 -2 -33 8 -32 6 1 9 5 8 10 -2 5 2 9 7 9 6 0 10 5
10 10 0 12 -27 14 -33 3z"/>
<path d="M884 3147 c3 -10 6 -48 6 -83 0 -35 4 -64 9 -64 5 0 19 11 32 25 13
13 30 25 37 25 22 0 13 15 -39 65 -29 28 -49 42 -45 32z"/>
<path d="M4017 3135 c-8 -18 11 -31 25 -17 11 11 3 32 -12 32 -4 0 -10 -7 -13
-15z"/>
<path d="M4362 3099 c-46 -33 -53 -62 -14 -67 18 -3 22 1 22 24 0 15 10 38 22
51 28 30 22 29 -30 -8z"/>
<path d="M4522 3116 c1 -10 8 -17 13 -17 15 1 12 24 -3 29 -9 3 -13 -2 -10
-12z"/>
<path d="M4146 3104 c-4 -9 0 -24 9 -34 8 -9 15 -22 15 -28 0 -7 4 -12 9 -12
5 0 11 -6 14 -12 2 -7 2 -4 0 7 -3 11 -6 32 -7 46 -5 46 -28 65 -40 33z"/>
<path d="M3648 3086 c-10 -7 -18 -19 -18 -26 0 -8 -7 -22 -17 -32 -13 -15 -13
-18 -2 -18 15 0 59 27 70 43 11 16 28 -2 35 -38 9 -49 23 -44 19 7 -2 32 -8
44 -24 50 -12 4 -21 12 -21 18 0 14 -21 12 -42 -4z"/>
<path d="M4456 3092 c-5 -9 -10 -100 -6 -117 6 -25 -1 -44 -14 -39 -8 3 -19
-3 -25 -15 -10 -18 -8 -21 14 -27 14 -3 25 -12 25 -19 0 -11 -9 -11 -50 0 -27
7 -50 9 -50 5 0 -9 14 -14 68 -25 17 -4 32 -11 32 -16 0 -5 9 -9 20 -9 17 0
20 7 20 44 0 25 -4 47 -9 51 -8 4 -7 85 1 149 3 20 -16 33 -26 18z"/>
<path d="M1255 3081 c-3 -5 -1 -12 5 -16 5 -3 10 1 10 9 0 18 -6 21 -15 7z"/>
<path d="M2720 3086 c0 -2 7 -7 16 -10 8 -3 12 -2 9 4 -6 10 -25 14 -25 6z"/>
<path d="M3487 3073 c-14 -13 -6 -23 18 -23 16 0 25 6 25 15 0 15 -31 21 -43
8z"/>
<path d="M2766 3041 c-4 -7 -5 -15 -2 -18 9 -9 19 4 14 18 -4 11 -6 11 -12 0z"/>
<path d="M526 3009 c-9 -47 -7 -89 4 -89 6 0 10 8 10 18 0 10 5 23 11 29 12
12 3 73 -11 73 -4 0 -10 -14 -14 -31z"/>
<path d="M306 2993 c10 -59 21 -61 26 -3 2 26 -1 35 -15 38 -16 3 -17 -1 -11
-35z"/>
<path d="M3180 3017 c0 -19 16 -31 24 -18 3 5 -1 14 -9 21 -12 10 -15 10 -15
-3z"/>
<path d="M3463 2986 c3 -42 12 -55 15 -21 1 13 3 29 4 36 2 6 -2 13 -9 16 -8
3 -11 -7 -10 -31z"/>
<path d="M4260 3002 c-34 -17 -50 -55 -28 -68 4 -3 6 -9 3 -14 -3 -4 4 -6 15
-3 22 6 26 23 9 40 -8 8 -3 16 20 27 17 9 31 21 31 26 0 13 -9 12 -50 -8z"/>
<path d="M4534 3006 c22 -18 46 -21 46 -6 0 6 -6 10 -14 10 -8 0 -23 3 -33 6
-16 5 -16 4 1 -10z"/>
<path d="M4026 2995 c-9 -26 -7 -32 5 -12 6 10 9 21 6 23 -2 3 -7 -2 -11 -11z"/>
<path d="M437 2973 c-4 -3 -6 -18 -6 -32 1 -20 3 -21 6 -7 4 15 7 16 14 5 6
-10 9 -6 9 14 0 26 -9 34 -23 20z"/>
<path d="M1276 2960 c-9 -15 -4 -127 7 -140 10 -13 120 -109 152 -133 5 -4 37
-28 70 -53 280 -211 435 -324 446 -324 18 0 9 64 -13 87 -17 18 -18 23 -6 23
20 0 73 69 62 79 -45 37 -124 100 -193 152 -46 35 -96 73 -110 84 -307 232
-303 229 -359 230 -29 1 -55 -2 -56 -5z m290 -257 c85 -71 191 -155 234 -188
87 -66 122 -99 75 -70 -36 22 -138 99 -180 136 -74 65 -183 157 -219 184 -67
52 -81 65 -73 65 5 0 78 -57 163 -127z m4 95 c0 -16 -3 -19 -11 -11 -6 6 -8
16 -5 22 11 17 16 13 16 -11z"/>
<path d="M4570 2960 c0 -5 5 -10 10 -10 6 0 10 5 10 10 0 6 -4 10 -10 10 -5 0
-10 -4 -10 -10z"/>
<path d="M3880 2884 c-41 -8 -96 -19 -122 -25 -26 -6 -52 -8 -58 -4 -6 4 -10
-7 -10 -28 0 -19 -7 -40 -15 -47 -23 -19 -18 -29 13 -21 15 5 26 14 24 20 -1
7 2 10 8 6 14 -9 -20 -57 -36 -51 -9 3 -14 -2 -14 -15 0 -24 19 -32 73 -31 61
0 77 9 122 61 22 26 59 62 83 80 43 32 53 64 22 68 -8 1 -49 -5 -90 -13z"/>
<path d="M3363 2834 c-7 -18 11 -39 25 -30 12 7 4 46 -9 46 -6 0 -12 -7 -16
-16z"/>
<path d="M665 2830 c-8 -13 14 -42 26 -34 5 3 9 14 9 25 0 20 -24 26 -35 9z"/>
<path d="M4440 2800 c0 -12 37 -12 65 0 15 7 10 9 -22 9 -24 1 -43 -3 -43 -9z"/>
<path d="M4097 2784 c-10 -11 -9 -44 2 -44 15 0 19 13 12 33 -4 10 -10 15 -14
11z"/>
<path d="M507 2752 c-6 -33 7 -63 16 -37 4 9 11 13 17 10 5 -3 10 -1 10 4 0 6
-4 11 -10 11 -5 0 -10 6 -10 14 0 27 -18 26 -23 -2z"/>
<path d="M4506 2765 c-3 -8 -1 -15 4 -15 6 0 10 7 10 15 0 8 -2 15 -4 15 -2 0
-6 -7 -10 -15z"/>
<path d="M3023 2756 c-4 -5 -1 -12 5 -14 21 -7 14 -50 -9 -57 -16 -5 -18 -10
-9 -18 8 -9 14 -8 21 6 6 9 19 17 30 17 15 0 20 6 18 23 -2 12 0 27 4 33 4 8
-4 13 -24 16 -16 3 -33 0 -36 -6z"/>
<path d="M160 2699 c0 -56 38 -217 74 -312 63 -167 224 -435 391 -652 101
-132 350 -376 487 -478 64 -48 122 -87 127 -87 21 0 27 38 23 150 l-4 115 -41
27 c-219 141 -614 550 -772 796 -43 67 -77 127 -105 182 -18 36 -36 67 -40 70
-5 3 -23 36 -41 74 -18 38 -35 64 -37 58 -9 -28 134 -326 238 -493 147 -237
417 -534 662 -727 64 -51 118 -98 121 -105 3 -7 -1 -20 -7 -29 -11 -14 -22 -8
-99 52 -295 230 -490 436 -678 718 -143 216 -223 397 -266 606 -10 47 -21 86
-25 86 -5 0 -8 -23 -8 -51z"/>
<path d="M4260 2739 c-3 -82 -8 -137 -14 -151 -8 -17 -6 -17 30 -2 67 28 96
53 93 83 -1 14 2 34 6 44 10 24 8 25 -58 33 -45 5 -57 4 -57 -7z"/>
<path d="M683 2732 c-15 -9 -11 -134 4 -139 13 -5 27 112 16 132 -5 8 -14 11
-20 7z"/>
<path d="M3592 2701 c-10 -6 -10 -10 2 -20 10 -9 16 -9 21 -1 10 16 -7 31 -23
21z"/>
<path d="M3880 2680 c0 -5 13 -16 28 -24 16 -8 34 -22 41 -30 14 -17 86 -23
76 -7 -9 15 -111 71 -129 71 -9 0 -16 -4 -16 -10z"/>
<path d="M3135 2661 c-3 -5 -1 -12 5 -16 5 -3 10 1 10 9 0 18 -6 21 -15 7z"/>
<path d="M3210 2661 c0 -5 -12 -14 -27 -19 -18 -7 -22 -11 -10 -11 9 -1 17 -8
17 -17 0 -14 -3 -14 -15 -4 -13 11 -14 10 -9 -4 5 -12 0 -16 -19 -16 -16 0
-28 -7 -31 -18 -4 -11 -18 -29 -31 -42 -25 -23 -25 -23 -25 -3 0 16 -5 20 -21
16 -13 -4 -17 -8 -9 -13 7 -5 3 -9 -11 -13 -49 -13 19 -40 156 -62 111 -19
404 -32 390 -18 -15 15 -204 143 -211 143 -3 0 -34 20 -68 45 -66 47 -76 51
-76 36z"/>
<path d="M2637 2629 c7 -7 15 -10 18 -7 3 3 -2 9 -12 12 -14 6 -15 5 -6 -5z"/>
<path d="M3100 2631 c0 -5 6 -14 14 -20 11 -9 16 -9 21 0 4 6 1 15 -6 20 -18
11 -29 11 -29 0z"/>
<path d="M3450 2601 c0 -9 24 -21 43 -21 6 0 2 7 -9 15 -22 17 -34 19 -34 6z"/>
<path d="M3590 2580 c-14 -11 -33 -20 -42 -20 -24 0 -48 -11 -48 -21 0 -5 9
-4 20 3 17 11 22 10 35 -9 8 -12 25 -23 38 -25 12 -2 21 -7 20 -13 -3 -18 -18
-15 -47 10 -50 43 -44 27 8 -20 46 -43 76 -57 76 -35 0 6 -9 10 -20 10 -11 0
-20 5 -20 10 0 6 6 10 14 10 27 0 38 27 31 74 -8 52 -24 58 -65 26z m51 -43
c-1 -4 -1 -16 -1 -28 0 -11 -4 -17 -10 -14 -14 8 -13 58 1 53 6 -2 10 -7 10
-11z"/>
<path d="M3960 2580 c0 -4 -19 -5 -42 -3 -41 5 -44 3 -55 -26 -15 -41 -15 -47
2 -43 7 1 16 -8 18 -20 l4 -23 8 22 c7 21 39 40 58 35 4 -1 7 5 5 15 -2 10 7
22 20 29 23 11 23 12 3 17 -12 3 -21 2 -21 -3z"/>
<path d="M2976 2534 c-8 -21 -8 -24 5 -24 5 0 7 5 4 10 -3 6 -1 10 4 10 6 0
11 5 11 10 0 16 -17 12 -24 -6z"/>
<path d="M3776 2501 c-9 -10 -25 -17 -35 -14 -11 3 -21 -2 -24 -11 -5 -12 0
-16 18 -16 13 0 26 4 29 9 3 5 16 7 29 4 21 -4 21 -4 4 10 -13 11 -15 16 -5
20 7 2 10 7 7 11 -3 3 -14 -2 -23 -13z"/>
<path d="M495 2500 c-3 -5 -1 -10 4 -10 6 0 11 5 11 10 0 6 -2 10 -4 10 -3 0
-8 -4 -11 -10z"/>
<path d="M3815 2487 c7 -17 42 -33 52 -23 4 3 0 6 -7 6 -7 0 -22 8 -32 17 -17
15 -18 15 -13 0z"/>
<path d="M504 2436 c-3 -8 -1 -23 5 -33 9 -15 10 -13 11 15 0 34 -7 42 -16 18z"/>
<path d="M4610 2373 c0 -5 5 -15 10 -23 8 -12 10 -11 10 8 0 12 -4 22 -10 22
-5 0 -10 -3 -10 -7z"/>
<path d="M820 2300 c0 -37 4 -50 13 -47 7 2 12 21 12 47 0 26 -5 45 -12 48 -9
2 -13 -11 -13 -48z"/>
<path d="M1984 2308 c3 -13 6 -29 6 -35 0 -7 7 -13 15 -13 18 0 20 41 3 58
-19 19 -31 14 -24 -10z"/>
<path d="M2247 2248 c-21 -15 -30 -17 -47 -8 -23 12 -27 -2 -5 -20 12 -10 14
-24 9 -63 -5 -36 -4 -48 4 -43 7 4 32 -7 58 -24 25 -18 48 -29 51 -26 7 7 42
107 43 121 0 6 -19 27 -43 47 l-43 36 -27 -20z"/>
<path d="M2077 2238 c-6 -22 7 -48 25 -48 13 0 5 63 -8 67 -6 2 -14 -6 -17
-19z"/>
<path d="M2149 2193 c-8 -21 -6 -30 8 -44 17 -18 18 -17 21 26 2 50 -13 60
-29 18z"/>
<path d="M4270 2179 c0 -11 4 -18 10 -14 5 3 7 12 3 20 -7 21 -13 19 -13 -6z"/>
<path d="M770 2150 c0 -25 4 -39 10 -35 6 3 10 19 10 35 0 16 -4 32 -10 35 -6
4 -10 -10 -10 -35z"/>
<path d="M1020 2145 c0 -8 5 -15 10 -15 6 0 10 7 10 15 0 8 -4 15 -10 15 -5 0
-10 -7 -10 -15z"/>
<path d="M882 2101 c2 -7 7 -12 11 -12 12 1 9 15 -3 20 -7 2 -11 -2 -8 -8z"/>
<path d="M1014 2080 c-11 -11 3 -90 16 -90 3 0 6 23 6 50 0 51 -4 58 -22 40z"/>
<path d="M1117 2083 c-9 -14 -12 -151 -4 -159 4 -4 7 7 7 24 0 18 5 32 11 32
7 0 9 12 5 34 -4 20 -2 37 4 41 15 9 12 35 -4 35 -8 0 -17 -3 -19 -7z"/>
<path d="M2488 1641 l4 -49 63 -16 c84 -21 85 -21 85 12 -1 23 -10 32 -71 62
-38 19 -73 36 -77 38 -4 1 -5 -20 -4 -47z"/>
<path d="M5205 1640 c-4 -6 -13 -9 -21 -6 -19 7 -18 -14 6 -70 12 -26 17 -50
12 -53 -4 -3 -2 -17 5 -31 12 -24 18 -16 14 20 -1 10 1 11 6 4 4 -7 20 -12 35
-12 26 0 27 1 10 23 -11 15 -19 19 -24 12 -4 -6 -8 17 -10 52 -3 61 -17 87
-33 61z"/>
<path d="M4760 1630 c0 -5 5 -10 11 -10 5 0 7 5 4 10 -3 6 -8 10 -11 10 -2 0
-4 -4 -4 -10z"/>
<path d="M2105 1617 c-4 -11 -3 -23 4 -30 15 -15 19 -7 11 23 -6 22 -8 23 -15
7z"/>
<path d="M1270 1600 c20 -13 33 -13 25 0 -3 6 -14 10 -23 10 -15 0 -15 -2 -2
-10z"/>
<path d="M1400 1586 c0 -9 -5 -16 -12 -16 -9 0 -9 -3 -1 -11 6 -6 16 -8 22 -5
14 9 14 33 1 41 -5 3 -10 -1 -10 -9z"/>
<path d="M2510 1550 c0 -6 7 -13 15 -17 24 -9 27 1 5 15 -13 8 -20 8 -20 2z"/>
<path d="M4635 1528 c3 -37 17 -88 26 -94 5 -3 9 -19 9 -35 0 -20 4 -29 13
-27 14 5 22 135 9 155 -4 6 -19 14 -33 18 -23 6 -26 3 -24 -17z"/>
<path d="M4480 1460 c0 -19 5 -30 14 -30 9 0 12 -7 9 -19 -7 -26 19 -32 46
-10 18 14 22 25 17 44 -6 24 -10 25 -44 19 -34 -7 -36 -6 -23 9 12 15 11 17
-3 17 -11 0 -16 -9 -16 -30z"/>
<path d="M2278 1445 c-12 -12 5 -51 23 -52 19 -2 24 13 13 41 -6 16 -25 21
-36 11z"/>
<path d="M2556 1361 c-7 -10 22 -37 30 -28 9 8 -3 37 -15 37 -5 0 -12 -4 -15
-9z"/>
<path d="M2237 1347 c-4 -10 -7 -26 -7 -35 1 -15 2 -15 11 1 6 10 9 25 7 35
-3 16 -4 15 -11 -1z"/>
<path d="M1371 1314 c-6 -22 -11 -46 -11 -55 0 -18 66 -53 75 -39 6 9 -30 109
-45 124 -5 5 -13 -9 -19 -30z"/>
<path d="M3960 1340 c0 -5 7 -7 15 -4 8 4 15 8 15 10 0 2 -7 4 -15 4 -8 0 -15
-4 -15 -10z"/>
<path d="M2500 1324 c0 -8 5 -12 10 -9 6 3 10 10 10 16 0 5 -4 9 -10 9 -5 0
-10 -7 -10 -16z"/>
<path d="M2010 1320 c0 -5 5 -10 11 -10 5 0 7 5 4 10 -3 6 -8 10 -11 10 -2 0
-4 -4 -4 -10z"/>
<path d="M2710 1314 c0 -8 5 -12 10 -9 6 4 8 11 5 16 -9 14 -15 11 -15 -7z"/>
<path d="M3418 1313 c7 -3 16 -2 19 1 4 3 -2 6 -13 5 -11 0 -14 -3 -6 -6z"/>
<path d="M4298 1300 c-7 -11 -18 -20 -25 -20 -17 0 -16 -20 2 -63 15 -36 12
-67 -7 -67 -5 0 -6 -5 -3 -11 4 -6 13 -8 21 -5 11 4 14 -5 14 -39 0 -36 3 -43
16 -38 12 4 14 0 12 -22 -2 -16 2 -30 10 -32 21 -8 15 61 -8 82 -11 10 -20 29
-20 43 0 19 4 23 20 19 11 -3 22 -1 25 3 8 13 -22 81 -43 96 -16 12 -16 13 0
19 9 4 22 4 28 0 6 -4 10 4 10 18 0 14 -7 28 -16 31 -22 8 -22 8 -36 -14z"/>
<path d="M2507 1302 c-24 -5 -20 -65 4 -70 12 -2 18 6 21 33 5 40 2 43 -25 37z"/>
<path d="M4540 1290 c0 -11 7 -20 15 -20 13 0 14 4 5 20 -6 11 -13 20 -15 20
-3 0 -5 -9 -5 -20z"/>
<path d="M2613 1293 c-18 -7 -16 -23 2 -23 8 0 15 7 15 15 0 8 -1 15 -2 14 -2
0 -9 -3 -15 -6z"/>
<path d="M2680 1276 c0 -41 14 -105 22 -100 5 3 6 14 3 24 -3 11 -1 28 4 39 6
11 8 27 5 35 -8 20 -34 21 -34 2z"/>
<path d="M1987 1223 c6 -62 29 -105 32 -61 9 96 6 113 -16 116 -21 3 -21 1
-16 -55z"/>
<path d="M2210 1273 c-16 -6 -30 -23 -30 -37 0 -4 6 -6 14 -3 10 4 17 -3 21
-23 8 -38 25 -49 25 -17 0 14 3 39 6 56 7 32 -1 37 -36 24z"/>
<path d="M2541 1254 c0 -11 3 -14 6 -6 3 7 2 16 -1 19 -3 4 -6 -2 -5 -13z"/>
<path d="M3297 1263 c-8 -16 -6 -88 3 -103 7 -11 10 -7 10 16 0 19 6 34 15 38
8 3 15 12 15 20 0 17 -36 41 -43 29z"/>
<path d="M4860 1245 c0 -8 5 -15 10 -15 6 0 10 7 10 15 0 8 -4 15 -10 15 -5 0
-10 -7 -10 -15z"/>
<path d="M2603 1224 c-35 -39 -28 -59 11 -31 10 8 16 22 14 35 -3 21 -3 21
-25 -4z"/>
<path d="M4730 1233 c0 -10 4 -24 9 -31 6 -10 10 -8 14 9 3 12 4 26 1 31 -9
14 -24 9 -24 -9z"/>
<path d="M4190 1210 c0 -5 4 -10 9 -10 6 0 13 5 16 10 3 6 -1 10 -9 10 -9 0
-16 -4 -16 -10z"/>
<path d="M3980 1161 c0 -11 -4 -21 -9 -23 -12 -4 2 -84 14 -81 17 4 18 46 1
55 -15 8 -15 11 -1 31 17 25 19 37 5 37 -5 0 -10 -9 -10 -19z"/>
<path d="M4198 1120 c3 -48 7 -59 17 -50 19 16 29 91 13 102 -27 17 -33 7 -30
-52z"/>
<path d="M4460 1140 c0 -42 17 -53 39 -26 15 18 -2 66 -24 66 -11 0 -15 -11
-15 -40z"/>
<path d="M3320 1150 c0 -11 5 -20 10 -20 6 0 10 9 10 20 0 11 -4 20 -10 20 -5
0 -10 -9 -10 -20z"/>
<path d="M1325 1150 c-9 -15 12 -38 72 -77 59 -37 63 -39 63 -18 0 8 -24 32
-52 53 -71 52 -76 54 -83 42z"/>
<path d="M4584 1137 c-7 -20 12 -81 32 -98 22 -18 25 -7 8 46 -17 58 -31 76
-40 52z"/>
<path d="M2577 1133 c-9 -8 -9 -58 0 -66 6 -7 33 45 33 64 0 10 -24 12 -33 2z"/>
<path d="M2730 1071 c0 -23 5 -41 10 -41 6 0 10 15 10 34 0 19 -4 38 -10 41
-6 4 -10 -10 -10 -34z"/>
<path d="M3550 1088 c0 -9 5 -20 10 -23 13 -8 13 5 0 25 -8 13 -10 13 -10 -2z"/>
<path d="M2832 1061 c-10 -6 -11 -21 -3 -71 11 -69 21 -90 21 -44 0 17 5 35
11 41 7 7 9 25 5 47 -7 37 -12 41 -34 27z"/>
<path d="M3073 1015 c-6 -27 -7 -63 -2 -88 4 -23 6 -60 3 -82 l-4 -40 14 35
c12 28 15 31 15 13 1 -33 20 -28 20 5 1 15 1 36 1 47 2 39 -13 115 -22 115 -5
0 -6 9 -3 20 3 11 2 20 -3 20 -5 0 -13 -20 -19 -45z"/>
<path d="M3542 1010 c-16 -36 -12 -92 7 -98 10 -3 12 1 9 16 -3 11 -2 26 3 33
7 11 9 9 10 -6 1 -11 1 -23 0 -27 0 -5 5 -8 13 -8 11 0 12 8 6 33 -8 34 -28
87 -32 87 -2 0 -9 -13 -16 -30z"/>
<path d="M3817 1033 c-3 -5 -1 -19 4 -32 12 -30 31 -15 23 17 -6 22 -19 29
-27 15z"/>
<path d="M3770 999 c0 -16 21 -52 39 -67 14 -12 14 -13 -1 -8 -11 3 -18 0 -18
-9 0 -8 9 -13 20 -12 14 1 20 8 20 24 0 13 -9 32 -20 43 -11 11 -20 25 -20 30
0 6 -4 10 -10 10 -5 0 -10 -5 -10 -11z"/>
</g>
</svg>
